<svg width="1439" height="293" viewBox="0 0 1439 293" fill="none" xmlns="http://www.w3.org/2000/svg">
<path d="M0 292.155C479.321 292.155 958.641 292.155 1437.96 292.155" stroke="url(#paint0_linear)" stroke-miterlimit="10"/>
<path d="M0 283.993C242.716 284.053 485.312 282.594 727.968 280.943C832.959 280.224 938.669 280.46 1043.65 281.974C1175.06 283.866 1306.54 282.084 1437.92 283.993" stroke="url(#paint1_linear)" stroke-miterlimit="10"/>
<path d="M0 275.952C68.7725 275.952 137.565 276.242 206.328 276.1C267.78 275.973 329.093 273.236 390.526 272.765C504.964 271.887 619.382 272.907 733.81 271.87C835.376 270.949 937.99 268.508 1039.49 272.232C1098.64 274.427 1157.19 275.425 1216.4 276.33C1290.29 277.46 1364.1 274.394 1437.96 275.952" stroke="url(#paint2_linear)" stroke-miterlimit="10"/>
<path d="M0 268.019C67.7839 268.019 135.748 268.644 203.512 267.97C267.191 267.333 330.501 262.874 394.131 261.727C508.789 259.659 622.547 265.567 737.085 264.514C837.872 263.603 937.231 256.209 1038.13 262.824C1097.1 266.692 1154.25 269.72 1213.66 270.603C1288.55 271.7 1363.08 266.363 1437.96 268.019" stroke="url(#paint3_linear)" stroke-miterlimit="10"/>
<path d="M0 260.241C66.5557 260.241 133.601 261.24 200.106 259.863C266.612 258.486 332.169 252.15 398.475 250.104C458.75 248.245 518.175 248.744 578.13 252.792C631.864 256.423 684.06 259.045 738.233 258.651C785.716 258.299 830.203 254.339 877.097 250.647C930.761 246.418 986.012 248.393 1039.18 253.78C1097.69 259.715 1152.89 265.392 1212.64 266.039C1288.01 266.862 1362.54 258.821 1437.96 260.241" stroke="url(#paint4_linear)" stroke-miterlimit="10"/>
<path d="M0 252.573C65.1177 252.573 131.224 253.917 196.232 251.766C265.693 249.473 333.977 241.169 403.288 238.053C462.799 235.343 522.708 237.2 581.286 243.571C633.582 249.177 684.14 254.185 737.594 253.955C787.094 253.741 831.881 246.857 879.933 241.289C934.475 234.97 988.449 237.367 1042.16 245.03C1099.73 253.258 1152.88 262.123 1213.04 262.359C1288.54 262.66 1362.33 251.651 1437.96 252.578" stroke="url(#paint5_linear)" stroke-miterlimit="10"/>
<path d="M0 245.024C63.5799 244.991 128.718 246.67 192.078 243.735C264.815 240.395 335.874 230.088 408.341 225.782C469.155 222.172 525.355 225.529 584.012 234.597C634.231 242.364 682.872 250.142 735.547 250.159C787.633 250.159 833.968 239.819 883.398 232.271C939.708 223.675 991.634 226.177 1046.66 236.56C1102.66 247.125 1154.07 259.599 1214.57 259.325C1289.96 258.952 1362.36 244.772 1437.96 245.024" stroke="url(#paint6_linear)" stroke-miterlimit="10"/>
<path d="M0 237.597C61.9721 237.548 126.131 239.413 187.734 235.804C263.806 231.349 337.522 219.051 413.324 213.5C474.987 208.986 528.511 213.813 586.219 225.892C633.831 235.858 680.595 246.659 732.412 246.999C787.174 247.361 836.544 233.16 887.192 223.599C945.679 212.557 995.619 214.904 1052.14 228.36C1105.96 241.174 1156.15 257.625 1216.9 256.703C1292.03 255.562 1362.52 238.124 1437.94 237.597" stroke="url(#paint7_linear)" stroke-miterlimit="10"/>
<path d="M0 230.291C60.3844 230.225 123.545 232.211 183.48 228.004C262.807 222.436 339.189 208.207 418.147 201.416C481.058 196.002 531.546 202.2 588.036 217.461C632.713 229.529 677.589 243.467 728.687 244.202C786.126 245.019 839.46 226.572 891.276 215.234C918.418 209.326 947.027 203.791 976.616 205.064C1005.57 206.314 1033 213.012 1058.32 220.423C1109.37 235.327 1159.1 255.842 1219.84 254.273C1294.63 252.337 1362.77 231.651 1437.97 230.308" stroke="url(#paint8_linear)" stroke-miterlimit="10"/>
<path d="M0.0493164 223.111C58.9658 223.029 121.098 225.064 179.395 220.368C261.748 213.753 340.517 197.686 422.401 189.721C486.749 183.457 534.322 190.912 589.284 209.315C630.955 223.27 673.954 240.324 724.592 241.482C784.507 242.847 842.425 220.061 895.23 207.165C922.891 200.407 953.398 193.281 984.294 194.85C1013.25 196.32 1040.38 204.351 1064.6 212.678C1112.88 229.288 1162.1 253.944 1223 251.745C1297.47 249.046 1362.98 225.217 1437.98 223.111" stroke="url(#paint9_linear)" stroke-miterlimit="10"/>
<path d="M0.0599365 216.057C57.5684 215.958 118.782 217.993 175.591 212.952C260.631 205.399 341.516 187.637 425.936 178.608C458.081 175.174 488.547 173.188 520.033 179.211C545.686 184.121 568.254 192.738 590.024 201.449C628.968 217.022 670.08 236.994 720.598 238.558C782.71 240.483 845.282 213.566 898.946 199.354C927.086 191.899 959.47 183.265 991.544 185.092C1020.63 186.737 1047.41 195.991 1070.58 205.13C1116.3 223.144 1164.93 251.657 1226.15 248.898C1300.36 245.546 1363.15 218.767 1438.02 216.029" stroke="url(#paint10_linear)" stroke-miterlimit="10"/>
<path d="M0.0698242 209.117C56.37 209.013 116.754 211.037 172.256 205.765C259.452 197.482 341.875 178.196 428.423 168.317C460.677 164.636 491.054 162.354 522.379 169.189C547.793 174.767 569.453 184.339 590.163 193.906C626.821 210.817 666.215 233.297 716.984 235.189C749.428 236.401 782.051 227.104 810.072 219.232C841.157 210.499 871.045 200.549 902.121 191.805C930.681 183.774 964.632 173.923 997.785 175.98C1027.08 177.795 1053.44 187.993 1075.78 197.812C1119.4 217.01 1167.12 248.749 1228.93 245.535C1303 241.695 1363.17 212.249 1438.03 209.095" stroke="url(#paint11_linear)" stroke-miterlimit="10"/>
<path d="M0.079895 202.305C55.3715 202.201 115.117 204.23 169.55 198.86C258.284 190.111 341.666 169.508 429.661 159.014C461.765 155.174 492.372 152.723 523.378 160.046C548.762 166.041 569.772 176.436 589.734 186.661C624.864 204.647 662.77 228.991 714.158 231.092C747.49 232.442 781.063 222.371 809.522 214.044C841.647 204.636 872.433 193.929 904.558 184.51C933.517 176.013 968.467 165.388 1002.51 167.555C1032.12 169.442 1058.02 180.276 1079.76 190.659C1122.03 210.84 1168.28 244.855 1231.08 241.427C1305.16 237.384 1363.03 205.574 1438.04 202.327" stroke="url(#paint12_linear)" stroke-miterlimit="10"/>
<path d="M0.0997925 195.613C54.6125 195.525 113.988 197.593 167.622 192.267C257.105 183.38 340.717 161.696 429.391 150.918C461.056 147.078 492.232 144.577 522.799 151.949C548.392 158.12 569.113 169.074 588.705 179.732C623.276 198.569 660.064 223.89 712.53 225.93C746.601 227.258 780.264 217.082 809.123 208.377C841.926 198.503 873.282 187.247 906.075 177.363C935.404 168.52 970.504 157.725 1005.24 159.875C1035.2 161.729 1060.67 172.76 1082.14 183.589C1124.08 204.735 1168.12 239.611 1232.39 236.215C1306.66 232.293 1362.78 198.525 1438.1 195.624" stroke="url(#paint13_linear)" stroke-miterlimit="10"/>
<path d="M0.109802 189.03C54.4228 188.844 113.609 191.17 167.013 185.739C255.887 176.683 338.43 154.352 426.406 143.321C457.981 139.366 489.137 136.996 519.683 144.28C545.646 150.484 566.776 161.57 586.658 172.36C621.868 191.471 659.046 217.115 712.2 219.507C746.512 221.049 779.974 210.999 808.963 202.157C841.817 192.13 873.112 180.654 905.956 170.621C935.424 161.614 970.344 150.967 1005.34 153.271C1035.5 155.257 1060.82 166.31 1082.33 177.259C1124.44 198.701 1167.64 233.116 1232.42 229.918C1306.9 226.254 1362.44 191.565 1438.07 189.03" stroke="url(#paint14_linear)" stroke-miterlimit="10"/>
<path d="M0.119751 182.595C54.6624 182.255 113.669 185.19 167.263 179.381C254.559 169.919 335.245 147.22 421.612 135.799C453.567 131.57 483.904 129.371 514.89 136.705C541.323 142.952 563.202 153.923 583.812 164.62C620.191 183.522 658.936 209.424 712.09 212.688C746.192 214.784 779.774 204.707 808.514 195.87C840.968 185.892 871.794 174.406 904.238 164.417C933.646 155.36 968.567 144.795 1003.52 147.533C1033.58 149.886 1059.27 161.098 1081.08 171.926C1123.41 192.935 1167.86 226.703 1231.86 223.599C1306.52 219.973 1362.24 185.086 1438.05 182.595" stroke="url(#paint15_linear)" stroke-miterlimit="10"/>
<path d="M0.139893 176.271C54.9921 175.865 113.839 179.617 167.762 173.468C253.281 163.715 331.86 140.72 416.41 129.036C448.634 124.571 478.262 122.58 509.598 129.821C536.44 136.025 559.197 146.71 580.577 157.325C618.174 175.975 658.706 201.784 711.811 205.837C745.603 208.421 778.926 198.553 807.405 189.754C839.31 179.88 869.487 168.465 901.372 158.597C930.691 149.524 965.282 139.261 1000.07 142.388C1030.17 145.098 1056.31 156.359 1078.61 167.072C1121.5 187.642 1167.42 220.566 1230.93 217.505C1305.91 213.895 1361.94 178.783 1438.08 176.304" stroke="url(#paint16_linear)" stroke-miterlimit="10"/>
<path d="M0.15979 170.067C55.3915 169.677 114.208 174.422 168.511 167.961C252.073 158.026 328.365 134.796 410.928 122.909C443.282 118.252 472.35 116.502 503.946 123.534C531.267 129.612 554.874 139.991 577.082 150.413C616.247 168.729 658.197 194.164 711.452 198.964C744.844 201.97 777.578 192.53 805.778 183.791C836.984 174.115 866.392 162.799 897.578 153.112C926.786 144.033 960.708 134.28 995.289 137.752C1025.53 140.797 1052.21 152.015 1075.18 162.579C1118.92 182.694 1166.48 214.608 1229.65 211.564C1305.09 207.927 1361.55 172.579 1438.15 170.083" stroke="url(#paint17_linear)" stroke-miterlimit="10"/>
<path d="M0.169678 163.984C55.8507 163.676 114.647 169.562 169.44 162.821C250.904 152.799 324.77 129.36 405.205 117.407C437.54 112.591 466.209 111.093 497.964 117.819C525.775 123.71 550.21 133.726 573.327 143.83C614.269 161.729 657.498 186.556 710.952 192.047C775.461 198.679 840.648 164.165 892.924 147.895C922.023 138.833 955.026 129.755 989.307 133.556C1019.78 136.941 1047.03 148.049 1070.78 158.454C1115.64 178.098 1164.97 208.871 1227.98 205.81C1303.98 202.124 1360.98 166.518 1438.13 163.984" stroke="url(#paint18_linear)" stroke-miterlimit="10"/>
<path d="M0.189758 158.026C56.3601 157.856 115.167 165.004 170.528 158.026C249.806 147.999 321.125 124.45 399.324 112.459C431.548 107.522 459.938 106.293 491.783 112.629C520.103 118.274 545.387 127.846 569.413 137.632C612.132 155.02 656.649 179.019 710.373 185.19C773.903 192.474 836.284 158.959 887.592 142.952C915.962 134.115 949.035 125.207 982.377 129.76C1013.33 133.984 1040.6 144.225 1065.71 154.647C1111.85 173.791 1163.08 203.319 1226.09 200.225C1302.74 196.468 1360.35 160.593 1438.15 157.988" stroke="url(#paint19_linear)" stroke-miterlimit="10"/>
<path d="M0.209656 152.185C56.9093 152.185 115.776 160.703 171.756 153.468C248.777 143.512 317.48 119.865 393.372 107.939C525.185 87.2101 593.948 163.737 709.734 178.383C772.145 186.287 831.371 153.978 881.75 138.296C909.99 129.519 941.785 121.527 974.708 126.337C1006.05 130.918 1033.96 140.934 1060.08 151.159C1107.66 169.809 1160.87 197.993 1224.01 194.85C1301.38 191.01 1359.66 154.856 1438.18 152.185" stroke="url(#paint20_linear)" stroke-miterlimit="10"/>
<path d="M0.229675 146.469C57.4785 146.7 116.445 156.617 173.095 149.168C247.819 139.344 313.895 115.641 387.421 103.82C516.508 83.0745 595.126 155.931 709.045 171.625C770.378 180.084 826.049 149.206 875.509 133.825C903.629 125.082 934.036 118.143 966.49 123.173C998.255 128.11 1026.87 137.874 1054.04 147.884C1103.15 165.986 1158.39 192.815 1221.8 189.601C1299.92 185.646 1358.93 149.228 1438.21 146.469" stroke="url(#paint21_linear)" stroke-miterlimit="10"/>
<path d="M0.249634 140.873C58.0677 141.34 117.154 152.705 174.513 145.07C246.95 135.426 310.32 111.697 381.569 100.035C507.92 79.3492 596.265 148.224 708.336 164.965C768.57 173.961 820.457 144.603 869.048 129.524C897.068 120.83 925.967 115.004 957.922 120.199C990.126 125.459 1019.48 135.01 1047.72 144.774C1098.41 162.327 1155.69 187.757 1219.42 184.471C1298.31 180.396 1358.1 143.704 1438.17 140.851" stroke="url(#paint22_linear)" stroke-miterlimit="10"/>
<path d="M0.269531 135.399C58.6468 136.107 117.903 148.926 176.02 141.131C246.221 131.707 306.975 107.966 375.927 96.502C499.592 75.9373 597.383 140.676 707.617 158.421C766.763 167.944 814.755 140.149 862.517 125.361C890.418 116.721 917.909 112.042 949.334 117.423C981.988 123.018 1012.12 132.327 1041.41 141.85C1093.69 158.854 1152.99 182.88 1217.11 179.512C1296.83 175.322 1357.37 138.372 1438.23 135.399" stroke="url(#paint23_linear)" stroke-miterlimit="10"/>
<path d="M0.289551 130.051C59.206 130.995 118.662 145.235 177.448 137.308C245.492 128.131 303.679 104.396 370.435 93.1564C491.653 72.7508 598.512 133.277 706.958 152.015C765.025 162.053 809.113 135.822 856.096 121.296C883.877 112.712 910.02 109.179 940.846 114.714C973.949 120.649 1004.84 129.744 1035.18 139.003C1089 155.427 1150.27 178.098 1214.84 174.658C1295.35 170.352 1356.64 133.101 1438.29 130.062" stroke="url(#paint24_linear)" stroke-miterlimit="10"/>
<path d="M0.30957 124.818C59.8152 125.987 119.411 141.593 178.916 133.556C244.913 124.643 300.644 100.924 365.322 89.9256C484.214 69.7065 599.62 126.03 706.249 145.761C763.348 156.326 803.491 131.549 849.825 117.314C877.516 108.812 902.291 106.343 932.598 112.037C966.13 118.313 997.766 127.226 1029.1 136.217C1084.39 152.075 1147.55 173.413 1212.57 169.886C1293.85 165.47 1355.85 127.95 1438.25 124.818" stroke="url(#paint25_linear)" stroke-miterlimit="10"/>
<path d="M0.32959 119.711C60.3944 121.072 120.16 137.961 180.334 129.843C244.444 121.198 297.868 97.4792 360.609 86.7388C421.473 76.3165 486.221 88.0827 543.07 100.655C597.892 112.783 650.009 128.691 705.65 139.689C762.03 150.836 797.989 127.226 843.974 113.359C905.037 94.9559 967.578 118.296 1023.47 133.43C1080.1 148.746 1145.04 168.811 1210.48 165.207C1292.48 160.698 1355.16 122.915 1438.29 119.706" stroke="url(#paint26_linear)" stroke-miterlimit="10"/>
<path d="M0.349426 114.719C60.9735 116.239 120.749 134.297 181.692 126.118C244.094 117.736 295.391 94.0337 356.445 83.5292C416.749 73.1399 483.205 84.4233 540.324 95.9372C596.255 107.215 649.489 122.108 705.12 133.825C760.751 145.542 793.245 123.09 838.641 109.42C898.316 91.4556 963.464 116.551 1018.39 130.621C1076.2 145.432 1142.79 164.28 1208.6 160.626C1291.23 156.035 1354.53 117.999 1438.27 114.719" stroke="url(#paint27_linear)" stroke-miterlimit="10"/>
<path d="M0.369507 109.854C61.5628 111.5 121.288 130.567 182.941 122.339C243.854 114.215 293.264 90.5234 352.7 80.2219C412.545 69.8819 480.519 80.7046 537.897 91.264C594.817 101.747 649.12 115.745 704.661 128.181C730.864 134.045 750.067 134.286 775.401 126.722C795.992 120.572 813.407 111.642 833.968 105.449C861.399 97.1772 883.248 97.4076 911.977 103.557C946.498 110.957 980.131 119.464 1014 127.731C1072.79 142.037 1140.82 159.787 1206.93 156.101C1290.13 151.461 1353.96 113.173 1438.3 109.854" stroke="url(#paint28_linear)" stroke-miterlimit="10"/>
<path d="M0.389404 105.104C62.1518 106.749 121.697 126.727 184.069 118.472C243.774 110.567 291.497 86.788 349.734 76.7498C409.27 66.4866 478.492 76.8595 536.1 86.6235C593.708 96.3875 649.02 109.662 704.381 122.827C729.965 128.91 748.669 129.772 773.783 122.246C793.695 116.277 810.311 107.468 830.173 101.456C857.454 93.195 878.964 94.0726 907.194 100.425C941.885 108.23 976.036 116.722 1010.55 124.758C1070.07 138.614 1139.43 155.377 1205.64 151.68C1289.3 147.012 1353.56 108.494 1438.31 105.153" stroke="url(#paint29_linear)" stroke-miterlimit="10"/>
<path d="M0.409363 100.485C62.751 102.087 121.957 122.756 185.028 114.478C243.844 106.749 290.079 82.7893 347.507 73.0473C406.963 62.9487 476.934 72.8498 534.902 81.9171C593.339 91.0503 649.13 103.771 704.262 117.66C729.326 123.968 747.82 125.296 772.745 117.77C792.117 111.928 808.064 103.173 827.377 97.2762C854.529 88.9878 876.018 90.3317 903.819 96.9252C938.559 105.153 973.11 113.667 1008.15 121.533C1068.07 134.988 1138.59 150.885 1204.74 147.215C1288.73 142.553 1353.3 103.815 1438.41 100.485" stroke="url(#paint30_linear)" stroke-miterlimit="10"/>
<path d="M0.429382 95.9809C63.3402 97.4345 122.037 118.603 185.807 110.303C244.014 102.728 289.25 78.6635 345.99 69.0367C405.256 58.9874 476.145 68.6746 534.263 77.177C593.299 85.8165 649.34 98.1915 704.212 112.832C728.867 119.414 747.46 121.005 772.255 113.43C791.228 107.632 806.676 98.8717 825.62 93.0188C852.671 84.6591 874.46 86.2388 901.931 93.134C936.602 101.834 971.413 110.407 1006.84 118.142C1066.94 131.257 1138.28 146.441 1204.16 142.826C1288.35 138.213 1353.08 99.2667 1438.39 95.9809" stroke="url(#paint31_linear)" stroke-miterlimit="10"/>
<path d="M0.459473 91.5931C63.6898 92.8986 121.977 114.297 186.136 105.921C244.144 98.3511 289.11 74.3086 345.67 64.7366C404.876 54.7203 476.085 64.6049 534.223 72.9263C593.469 81.4067 649.33 93.6885 704.272 108.395C728.837 114.977 747.69 116.349 772.315 108.823C791.159 103.063 806.507 94.3796 825.35 88.6035C852.312 80.3425 874.5 81.8784 901.712 88.971C936.233 97.9671 971.084 106.607 1006.66 114.264C1066.47 127.138 1138.74 142.152 1204.11 138.4C1288.18 133.584 1353.33 95.2957 1438.42 91.6095" stroke="url(#paint32_linear)" stroke-miterlimit="10"/>
<path d="M0.479248 87.2758C63.8494 88.5155 121.967 110.057 186.276 101.582C244.194 93.946 289.39 70.1065 345.989 60.5949C405.196 50.6444 476.245 60.9624 534.293 69.3386C593.349 77.8629 648.97 90.1227 704.292 104.132C756.657 117.391 782.611 97.0014 825.739 84.2863C852.701 76.3379 875.03 77.7861 901.991 84.9061C936.363 93.9844 971.153 102.602 1006.72 110.172C1066.18 122.821 1139.38 137.906 1204.29 133.836C1288 128.581 1353.95 91.8506 1438.47 87.3581" stroke="url(#paint33_linear)" stroke-miterlimit="10"/>
<path d="M0.499329 83.0249C64.0592 84.2208 122.037 105.921 186.546 97.3747C244.463 89.6952 289.839 66.108 346.469 56.6841C405.675 46.8104 476.515 57.5234 534.472 65.927C593.299 74.4568 648.71 86.6618 704.352 99.9638C756.278 112.383 783.16 92.3556 826.319 80.2164C853.28 72.6137 875.808 74.0179 902.531 81.1489C936.742 90.2766 971.433 98.8284 1006.99 106.267C1066.21 118.658 1140.14 133.584 1204.51 129.239C1287.8 123.622 1354.56 88.4884 1438.46 83.2828" stroke="url(#paint34_linear)" stroke-miterlimit="10"/>
<path d="M0.519287 78.8505C64.2989 80.0134 122.187 101.889 186.935 93.3045C244.783 85.636 290.428 62.3176 347.098 52.9924C406.304 43.2833 476.914 54.265 534.762 62.6741C593.309 71.1765 648.601 83.2882 704.441 95.8552C755.998 107.446 783.799 87.863 827.068 76.2889C854.099 69.0646 876.797 70.4689 903.319 77.5944C937.341 86.7385 971.962 95.1915 1007.46 102.454C1066.53 114.549 1140.91 129.108 1204.84 124.538C1287.72 118.62 1355.25 85.1368 1438.51 79.2894" stroke="url(#paint35_linear)" stroke-miterlimit="10"/>
<path d="M0.539185 74.7473C64.5884 75.8992 122.366 97.945 187.444 89.3549C245.242 81.7302 291.167 58.6751 347.887 49.5364C407.073 39.9973 477.323 51.2259 535.151 59.6076C593.379 68.0551 648.501 80.0407 704.571 91.8507C755.739 102.63 784.518 83.5623 827.986 72.6135C855.108 65.7787 877.985 67.2323 904.338 74.3359C938.094 83.5264 972.732 91.7044 1008.1 98.8336C1067.12 110.594 1141.71 124.615 1205.27 119.837C1287.61 113.677 1355.97 81.8838 1438.5 75.4823" stroke="url(#paint36_linear)" stroke-miterlimit="10"/>
<path d="M0.569275 70.7213C64.9081 71.8732 122.666 94.111 188.063 85.5319C245.812 77.9675 292.046 55.2196 348.836 46.2674C408.002 36.9422 477.953 48.3464 535.671 56.6897C593.589 65.0494 648.561 76.8704 704.761 87.9125C755.549 97.8959 785.367 79.3937 829.095 69.1086C856.346 62.6962 879.393 64.2321 905.596 71.3027C939.149 80.4324 973.661 88.4571 1008.95 95.3342C1068 106.727 1142.58 119.986 1205.8 115.082C1287.61 108.735 1356.75 78.6806 1438.56 71.78" stroke="url(#paint37_linear)" stroke-miterlimit="10"/>
<path d="M0.589172 66.7828C65.2575 67.9402 123.006 90.37 188.772 81.8567C246.481 74.3856 293.045 51.9668 349.854 43.2285C408.99 34.1338 478.572 45.675 536.24 53.947C593.728 62.1751 648.68 73.8096 704.941 84.0673C755.369 93.2663 786.285 75.3949 830.313 65.8064C857.714 59.8383 880.941 61.4894 907.034 68.5491C940.357 77.5915 974.714 85.4357 1009.89 92.0321C1069.03 103.003 1143.39 115.378 1206.34 110.359C1287.58 103.886 1357.47 75.6033 1438.54 68.2803" stroke="url(#paint38_linear)" stroke-miterlimit="10"/>
<path d="M0.609131 62.921C65.6369 64.1059 123.435 86.7496 189.581 78.2801C247.249 70.9407 294.153 48.8784 351.022 40.3761C410.119 31.5446 479.321 43.1682 536.859 51.3469C593.948 59.4653 648.84 70.8365 705.12 80.3043C755.199 88.7243 787.274 71.5276 831.631 62.6742C859.202 57.1888 882.609 58.9661 908.622 65.9654C941.724 74.9007 975.938 82.5354 1011.01 88.8121C1070.34 99.3605 1144.28 110.688 1207 105.581C1287.65 98.9985 1358.25 72.5534 1438.57 64.8519" stroke="url(#paint39_linear)" stroke-miterlimit="10"/>
<path d="M0.629028 59.1466C66.0463 60.3643 123.834 83.2274 190.47 74.8732C248.098 67.6434 295.371 45.9542 352.3 37.7152C411.347 29.1744 480.119 40.8363 537.578 48.9108C594.267 56.8811 649.11 67.9671 705.34 76.634C755.08 84.3136 788.382 67.819 833.089 59.728C860.85 54.7089 884.436 56.6781 910.389 63.5678C943.26 72.3675 977.312 79.7689 1012.24 85.7068C1071.81 95.7725 1145.15 105.931 1207.69 100.764C1287.74 94.1818 1359.01 69.5524 1438.57 61.5327" stroke="url(#paint40_linear)" stroke-miterlimit="10"/>
<path d="M0.64917 55.4657C66.4759 56.7274 124.324 79.8099 191.379 71.5708C249.037 64.5111 296.68 43.1949 353.679 35.2411C412.665 27.013 480.958 38.6695 538.417 46.6233C594.687 54.4235 649.489 65.1913 705.66 73.0519C755.06 79.969 789.661 64.2424 834.737 56.9523C862.697 52.4323 886.453 54.5936 912.387 61.4503C945.019 70.0956 978.9 77.2383 1013.68 82.8049C1073.48 92.355 1146.08 101.263 1208.48 96.0357C1287.9 89.4148 1359.81 66.7053 1438.61 58.4114" stroke="url(#paint41_linear)" stroke-miterlimit="10"/>
<path d="M0.669067 51.8954C66.9052 53.1955 124.823 76.4974 192.467 68.3955C250.036 61.4949 298.077 40.5955 355.137 32.9434C414.053 25.039 481.877 36.668 539.206 44.4627C595.066 52.0765 649.829 62.4877 705.879 69.5474C754.97 75.735 790.939 60.7708 836.364 54.32C864.524 50.3102 888.471 52.6744 914.414 59.4817C946.799 67.9541 980.499 74.8181 1015.11 79.9916C1075.3 88.9877 1146.99 96.5026 1209.3 91.286C1288.1 84.7036 1360.58 63.903 1438.63 55.3732" stroke="url(#paint42_linear)" stroke-miterlimit="10"/>
<path d="M0.689026 48.3843C67.4044 49.7611 125.432 73.2879 193.556 65.3396C251.114 58.631 299.575 38.1485 356.674 30.8145C415.541 23.2612 482.855 34.8244 540.104 42.4875C595.546 49.9092 650.268 59.9255 706.169 66.1844C754.97 71.6697 792.357 57.5119 838.122 51.9223C866.492 48.4391 890.617 51.0556 916.601 57.7698C948.74 66.0521 982.253 72.6191 1016.68 77.38C1077.23 85.7837 1147.93 91.856 1210.15 86.6339C1288.34 80.0788 1361.34 61.264 1438.65 52.5367" stroke="url(#paint43_linear)" stroke-miterlimit="10"/>
<path d="M0.708984 44.9892C67.9037 46.4374 126.031 70.1891 194.724 62.4163C252.232 55.9052 301.083 35.8561 358.282 28.8567C417.069 21.6599 483.864 33.1408 541.023 40.6338C596.065 47.8471 650.718 57.4411 706.439 62.899C754.99 67.6549 793.825 54.3528 839.939 49.597C868.509 46.6513 892.804 49.5257 918.877 56.1794C950.766 64.2558 984.085 70.5056 1018.31 74.8298C1079.22 82.5971 1148.84 87.1609 1211.03 81.9608C1288.61 75.4825 1362.07 58.6533 1438.67 49.7506" stroke="url(#paint44_linear)" stroke-miterlimit="10"/>
<path d="M0.728943 41.6982C68.393 43.2232 126.67 67.1998 195.892 59.6135C253.411 53.3108 302.671 33.706 359.94 27.0522C418.646 20.2339 484.913 31.5996 542.032 38.9171C596.684 45.922 651.257 55.0552 706.798 59.7177C755.139 63.7714 795.452 51.3361 841.897 47.4579C870.676 45.0498 895.141 48.1984 921.314 54.7535C952.955 62.621 986.078 68.5481 1020.08 72.4274C1081.41 79.52 1149.84 82.526 1212.01 77.3642C1288.9 70.9683 1362.8 56.1687 1438.69 47.1178" stroke="url(#paint45_linear)" stroke-miterlimit="10"/>
<path d="M0.748901 38.511C68.9023 40.1182 127.329 64.2924 197.121 56.9365C254.639 50.8532 304.309 31.6927 361.647 25.4009C420.274 18.983 486.001 30.2061 543.05 37.3372C597.333 44.1226 651.806 52.7676 707.107 56.6402C755.279 60.0138 797.06 48.4615 843.804 45.461C872.763 43.6015 897.418 47.0353 923.69 53.5081C955.085 61.1518 988.009 66.7396 1021.78 70.1562C1083.49 76.5358 1150.72 77.9565 1212.89 72.8331C1289.22 66.5469 1363.41 53.7933 1438.64 44.6108" stroke="url(#paint46_linear)" stroke-miterlimit="10"/>
<path d="M0.768921 35.439C69.4216 37.1285 128.019 61.5494 198.369 54.3855C255.877 48.5216 305.986 29.8219 363.395 23.9196C421.922 17.8857 487.099 28.9827 544.139 35.9162C598.062 42.4987 652.415 50.6116 707.487 53.6998C755.569 56.3986 798.778 45.746 845.881 43.6287C875.05 42.3176 899.804 46.0532 926.327 52.4382C957.48 59.8542 990.202 65.0952 1023.73 68.0386C1164.53 80.8141 1302.5 59.262 1438.78 42.2573" stroke="url(#paint47_linear)" stroke-miterlimit="10"/>
<path d="M0.788818 32.4655C69.9508 34.2483 128.717 58.8832 199.647 51.9441C257.155 46.3161 307.694 28.0827 365.172 22.526C423.599 16.876 488.228 27.8359 545.147 34.5664C598.761 40.924 652.954 48.5103 707.777 50.7977C755.848 52.8218 800.415 43.1182 847.868 41.8565C877.206 41.0886 902.171 45.1477 928.843 51.4395C959.64 58.7515 992.343 63.4141 1025.55 65.9922C1162.76 76.6503 1305.88 56.8645 1438.75 39.975" stroke="url(#paint48_linear)" stroke-miterlimit="10"/>
<path d="M0.808838 29.6137C70.4801 31.4897 129.427 56.3386 200.935 49.6299C258.454 44.2158 309.411 26.4706 366.96 21.2869C425.287 16.0374 489.356 26.8491 546.216 33.3548C599.54 39.471 653.544 46.5197 708.116 48.0611C756.278 49.4215 802.103 40.6339 849.915 40.2664C879.423 40.0415 904.548 44.4188 931.43 50.6337C962.026 57.7044 994.51 61.9666 1027.43 64.0839C1090.15 68.1157 1153.75 64.6818 1215.96 59.7505C1290.59 53.8317 1365.33 47.337 1438.77 37.8089" stroke="url(#paint49_linear)" stroke-miterlimit="10"/>
<path d="M0.828857 26.8761C70.4102 28.8124 129.277 53.7051 200.716 47.5724C258.004 42.6356 309.062 25.5815 366.161 20.4088C423.879 15.1812 486.66 25.5541 543.02 31.8184C597.503 37.8523 652.695 44.5939 708.466 45.4386C757.976 46.1901 806.217 37.8852 855.617 38.8562C885.435 39.4431 910.29 44.7968 937.621 50.743C966.011 56.9195 995.988 60.4576 1026.31 62.1307C1090.83 65.6907 1154.83 60.4412 1218.59 55.4879C1292.19 49.7721 1366.44 45.3728 1438.82 35.8172" stroke="url(#paint50_linear)" stroke-miterlimit="10"/>
<path d="M0.838806 24.2602C70.8995 26.2898 130.006 51.3909 201.974 45.4942C259.272 40.7987 310.74 24.1944 367.928 19.4001C425.527 14.5949 487.808 24.8197 544.089 30.8811C598.312 36.7285 653.294 42.9489 708.775 42.9489C758.575 42.9489 807.885 35.7466 857.694 37.5842C887.552 38.6813 912.616 44.3422 940.157 50.1622C968.357 56.1194 998.135 59.2844 1028.19 60.5351C1092.93 63.2284 1155.82 56.3004 1219.57 51.4842C1292.69 45.9604 1366.93 43.6072 1438.8 33.9309" stroke="url(#paint51_linear)" stroke-miterlimit="10"/>
<path d="M0.858765 21.7689C71.4487 23.8917 130.675 49.1959 203.252 43.5294C260.571 39.0534 312.437 22.9153 369.706 18.4941C427.184 14.0455 488.977 24.1989 545.227 30.0628C599.151 35.6963 653.923 41.3572 709.115 40.5564C759.274 39.8268 809.552 33.7051 859.781 36.3984C889.679 38.0057 914.943 43.9683 942.664 49.6621C970.624 55.4053 1000.26 58.1974 1030.04 59.0257C1094.95 60.8413 1156.8 52.2677 1220.53 47.5831C1293.19 42.2404 1367.32 41.9442 1438.77 32.1473" stroke="url(#paint52_linear)" stroke-miterlimit="10"/>
<path d="M0.878784 19.405C71.958 21.5991 131.434 47.1172 204.52 41.6866C261.849 37.4245 314.115 21.7253 371.473 17.699C428.832 13.6728 490.125 23.6891 546.226 29.35C600.019 34.7805 654.532 39.9094 709.424 38.3022C760.023 36.8211 811.16 31.7965 861.808 35.3346C891.766 37.4245 917.21 43.7108 945.19 49.2729C973.17 54.8351 1002.43 57.2268 1031.93 57.6437C1096.84 58.5707 1157.87 48.3898 1221.53 43.8369C1293.77 38.6697 1367.84 40.425 1438.81 30.4855" stroke="url(#paint53_linear)" stroke-miterlimit="10"/>
<path d="M0.888672 17.1667C72.4572 19.4705 132.143 45.1422 205.748 39.9639C263.107 35.9102 315.752 20.6883 373.191 17.0021C430.39 13.3324 491.303 23.2829 547.304 28.7518C600.938 33.9849 655.151 38.5761 709.774 36.179C760.871 33.9355 812.768 30.0025 863.865 34.3688C893.733 36.925 919.476 43.5404 947.657 48.9764C975.317 54.3082 1004.58 56.3598 1033.75 56.3762C1098.66 56.4201 1158.92 44.6814 1222.49 40.2492C1294.38 35.2355 1368.28 39.0369 1438.81 28.9383" stroke="url(#paint54_linear)" stroke-miterlimit="10"/>
<path d="M0.898743 15.0664C72.9466 17.4471 132.812 43.3326 206.947 38.3519C264.335 34.5121 317.36 19.7016 374.869 16.4103C432.008 13.1191 492.312 22.9928 548.323 28.2697C601.847 33.2944 655.79 37.37 710.093 34.194C761.74 31.177 814.306 28.3356 865.872 33.5138C895.73 36.5033 921.693 43.4533 950.083 48.7632C977.614 53.9085 1006.62 55.5925 1035.53 55.2195C1100.34 54.3912 1159.97 41.1494 1223.45 36.8215C1294.93 31.9504 1368.64 37.7979 1438.84 27.4963" stroke="url(#paint55_linear)" stroke-miterlimit="10"/>
<path d="M0.918701 13.0967C73.4159 15.5596 133.491 41.6207 208.115 36.8594C265.534 33.1897 318.958 18.8563 376.496 15.8778C433.515 12.9266 493.331 22.7839 549.311 27.8634C602.736 32.696 656.409 36.2615 710.403 32.323C762.629 28.5161 815.843 26.7498 867.77 32.7234C897.598 36.1518 923.78 43.4309 952.42 48.631C979.781 53.5679 1008.64 54.9283 1037.3 54.1768C1101.94 52.4928 1161.05 37.8139 1224.42 33.5791C1295.57 28.8233 1369.06 36.7003 1438.92 26.1958" stroke="url(#paint56_linear)" stroke-miterlimit="10"/>
<path d="M0.928711 11.2646C73.8254 13.8044 134.12 40.052 209.223 35.4826C266.672 31.983 320.396 18.083 378.064 15.4335C434.983 12.8225 494.359 22.6633 550.25 27.5672C603.604 32.2572 657.009 35.2852 710.683 30.6006C763.518 25.9929 817.211 25.2798 869.587 32.0269C899.355 35.8666 925.788 43.4749 954.617 48.5543C981.838 53.3486 1010.54 54.3414 1038.9 53.2334C1103.31 50.7156 1162.01 34.6818 1225.26 30.5019C1296.16 25.8338 1369.35 35.7295 1438.9 24.9726" stroke="url(#paint57_linear)" stroke-miterlimit="10"/>
<path d="M0.938599 9.58105C74.2946 12.1811 134.749 38.6043 210.272 34.2159C267.77 30.8808 321.824 17.3923 379.552 15.0664C436.381 12.779 495.298 22.6198 551.139 27.3702C604.443 31.9066 657.588 34.4299 710.962 29.0158C764.336 23.6017 818.56 23.9199 871.345 31.4129C901.043 35.6312 927.735 43.4808 956.724 48.5383C983.685 53.2503 1012.42 53.8427 1040.44 52.3781C1104.58 49.0868 1162.96 31.7585 1226.08 27.6335C1296.67 23.0203 1369.65 34.9181 1438.9 23.8705" stroke="url(#paint58_linear)" stroke-miterlimit="10"/>
<path d="M0.998657 8.01172C74.7541 10.6666 135.338 37.2653 211.311 33.047C268.789 29.871 323.162 16.7883 380.96 14.7642C437.66 12.7785 496.197 22.6522 551.978 27.2654C605.252 31.6538 658.147 33.6998 711.212 27.5726C765.275 21.3357 819.818 22.6358 872.982 30.8639C902.62 35.4387 929.542 43.5845 958.701 48.5707C985.553 53.162 1014.14 53.4253 1041.86 51.6645C1072.11 49.7391 1101.6 45.3288 1130.64 40.4359C1161.97 35.1644 1194.22 27.1228 1226.86 24.9945C1297.21 20.4032 1369.94 34.2758 1438.91 22.8991" stroke="url(#paint59_linear)" stroke-miterlimit="10"/>
<path d="M0.998657 6.64062C75.1136 9.33944 135.808 36.1081 212.219 32.0325C269.748 28.9607 324.41 16.2401 382.278 14.5176C438.888 12.8117 497.006 22.7457 552.737 27.2438C606.011 31.5333 658.696 33.0967 711.452 26.2783C766.104 19.2131 821.006 21.4567 874.56 30.3979C904.068 35.3347 931.22 43.7274 960.528 48.6423C987.271 53.1238 1015.73 53.0909 1043.18 51.0284C1073.37 48.7684 1102.69 43.9742 1131.56 38.7686C1162.66 33.1625 1194.96 24.704 1227.59 22.5592C1297.72 17.957 1370.22 33.7769 1438.92 22.0107" stroke="url(#paint60_linear)" stroke-miterlimit="10"/>
<path d="M0.998657 5.39551C75.4531 8.1382 136.307 35.066 213.048 31.111C270.616 28.1379 325.539 15.8013 383.456 14.3257C439.986 12.8831 497.714 22.9323 553.406 27.3151C606.69 31.5005 659.186 32.625 711.631 25.121C766.913 17.2385 822.065 20.3651 875.998 29.992C905.397 35.236 932.748 43.8865 962.206 48.7466C988.838 53.1349 1017.13 52.8277 1044.38 50.4964C1074.5 47.9183 1103.67 42.762 1132.38 37.2711C1163.28 31.3633 1195.62 22.5319 1228.25 20.3542C1298.15 15.6916 1370.48 33.4368 1438.95 21.2483" stroke="url(#paint61_linear)" stroke-miterlimit="10"/>
<path d="M0.998657 4.30371C75.7627 7.04641 136.716 34.1607 213.787 30.299C271.425 27.4082 326.627 15.4116 384.605 14.1774C441.075 12.9706 498.443 23.168 554.075 27.463C607.379 31.5716 659.725 32.2792 711.851 24.1334C767.702 15.4061 822.993 19.3556 877.306 29.6188C906.605 35.1645 934.136 44.0399 963.714 48.8561C990.256 53.1731 1018.45 52.6245 1045.44 50.0464C1075.52 47.172 1104.52 41.6867 1133.11 35.9325C1163.84 29.7395 1196.19 20.6063 1228.87 18.3792C1298.63 13.6179 1370.78 33.2446 1438.95 20.5734" stroke="url(#paint62_linear)" stroke-miterlimit="10"/>
<path d="M0.998657 3.37109C76.0523 6.11379 137.066 33.3981 214.436 29.5967C272.084 26.7663 327.536 15.0879 385.563 14.0457C441.974 13.0528 498.963 23.4312 554.594 27.6659C607.928 31.7251 660.174 32.0542 712.001 23.2776C768.431 13.7165 823.752 18.412 878.465 29.3115C907.633 35.126 935.324 44.2043 965.012 48.9876C991.475 53.2552 1019.52 52.4982 1046.33 49.7007C1076.36 46.5576 1105.24 40.776 1133.71 34.7804C1164.3 28.3351 1196.62 18.9661 1229.39 16.6786C1299 11.7692 1371.06 33.2445 1438.96 20.0138" stroke="url(#paint63_linear)" stroke-miterlimit="10"/>
<path d="M0.998657 2.59277C75.6828 5.33547 136.497 32.6198 213.418 29.0817C274.201 26.2897 332.958 13.6788 394.291 13.9366C446.727 14.156 499.342 23.6183 551.139 27.6884C606.171 32.0109 658.846 31.8903 712.141 22.6364C771.237 12.4007 826.608 17.7818 883.567 29.9539C909.101 35.4064 933.427 42.8446 959.15 47.9515C986.372 53.3546 1016.26 52.828 1044.27 49.8275C1076.05 46.4265 1106.48 39.9538 1136.46 33.3713C1166.68 26.712 1198.8 17.3375 1231.38 15.1434C1300.29 10.5301 1371.95 33.3055 1438.95 19.5701" stroke="url(#paint64_linear)" stroke-miterlimit="10"/>
<path d="M0.998657 1.97852C75.8925 4.68281 136.706 32.1482 213.837 28.6046C274.641 25.8071 333.667 13.4924 394.98 13.9038C447.376 14.2603 499.722 23.9859 551.488 28.0616C606.56 32.395 659.226 31.9672 712.26 22.1099C771.956 11.0075 827.038 17.0195 884.466 29.7895C909.88 35.4394 934.276 42.9434 960.069 48.0558C987.231 53.4644 1016.99 52.8281 1044.84 49.6575C1076.6 46.0427 1106.91 39.2901 1136.8 32.5321C1166.98 25.7083 1199.09 16.2296 1231.75 13.9257C1300.53 9.10953 1372.26 33.5908 1438.96 19.1917" stroke="url(#paint65_linear)" stroke-miterlimit="10"/>
<path d="M0.998657 1.53906C76.0423 4.19948 136.806 31.8294 214.156 28.231C274.97 25.4005 334.126 13.3491 395.519 13.8922C447.895 14.3529 499.991 24.3912 551.738 28.4998C606.84 32.8881 659.585 32.1914 712.28 21.7418C772.555 9.79457 827.197 16.3112 885.115 29.6188C910.469 35.4388 934.925 43.0196 960.738 48.1923C987.88 53.6283 1017.38 52.9427 1045.21 49.624C1109.51 41.9445 1167.12 17.902 1232.03 13.0529C1300.69 7.92406 1372.61 34.0565 1438.96 18.9332" stroke="url(#paint66_linear)" stroke-miterlimit="10"/>
<path d="M0.998657 1.25977C76.1621 3.86533 136.906 31.6598 214.346 27.9736C275.17 25.0718 334.526 13.2563 395.889 13.8871C448.275 14.4357 500.141 24.825 551.868 29.0049C606.99 33.459 659.915 32.5594 712.31 21.5447C773.114 8.7583 827.147 15.6534 885.615 29.4986C910.759 35.4392 935.274 43.3108 961.148 48.2805C988.629 53.552 1017.24 53.1241 1045.37 49.6574C1109.78 41.7145 1167.07 17.6501 1232.21 12.45C1300.78 6.96457 1373.01 34.6932 1438.92 18.7691" stroke="url(#paint67_linear)" stroke-miterlimit="10"/>
<path d="M0.998627 1.15527C76.2419 3.68404 136.876 31.6431 214.396 27.8198C275.22 24.8193 334.656 13.2012 396.138 13.8814C448.534 14.4628 500.201 25.291 551.918 29.5696C607.039 34.128 660.244 33.0802 712.33 21.5116C773.603 7.89133 826.878 15.0333 885.904 29.405C939.828 42.5261 984.255 57.4628 1045.32 49.7723C1109.9 41.6375 1166.92 17.776 1232.29 12.159C1300.78 6.27314 1373.39 35.4993 1439 18.7414" stroke="url(#paint68_linear)" stroke-miterlimit="10"/>
<defs>
<linearGradient id="paint0_linear" x1="1.03668e+06" y1="393.825" x2="1.03668e+06" y2="319.605" gradientUnits="userSpaceOnUse">
<stop stop-color="#01FCD3"/>
<stop offset="1" stop-color="#01FCD3"/>
</linearGradient>
<linearGradient id="paint1_linear" x1="1.03666e+06" y1="630.464" x2="1.03666e+06" y2="375.026" gradientUnits="userSpaceOnUse">
<stop stop-color="#01FCD3"/>
<stop offset="1" stop-color="#01FCD3"/>
</linearGradient>
<linearGradient id="paint2_linear" x1="1.03668e+06" y1="916.43" x2="1.03668e+06" y2="444.699" gradientUnits="userSpaceOnUse">
<stop stop-color="#01FCD3"/>
<stop offset="1" stop-color="#01FCD3"/>
</linearGradient>
<linearGradient id="paint3_linear" x1="1.03668e+06" y1="1343.2" x2="1.03668e+06" y2="552.527" gradientUnits="userSpaceOnUse">
<stop stop-color="#01FCD3"/>
<stop offset="1" stop-color="#01FCD3"/>
</linearGradient>
<linearGradient id="paint4_linear" x1="1.03668e+06" y1="2051.91" x2="1.03668e+06" y2="735.302" gradientUnits="userSpaceOnUse">
<stop stop-color="#01FCD3"/>
<stop offset="1" stop-color="#01FCD3"/>
</linearGradient>
<linearGradient id="paint5_linear" x1="1.03668e+06" y1="2831.37" x2="1.03668e+06" y2="937.344" gradientUnits="userSpaceOnUse">
<stop stop-color="#01FCD3"/>
<stop offset="1" stop-color="#01FCD3"/>
</linearGradient>
<linearGradient id="paint6_linear" x1="1.03668e+06" y1="3780.04" x2="1.03668e+06" y2="1184.36" gradientUnits="userSpaceOnUse">
<stop stop-color="#01FCD3"/>
<stop offset="1" stop-color="#01FCD3"/>
</linearGradient>
<linearGradient id="paint7_linear" x1="1.03667e+06" y1="4777.53" x2="1.03667e+06" y2="1444.53" gradientUnits="userSpaceOnUse">
<stop stop-color="#01FCD3"/>
<stop offset="1" stop-color="#01FCD3"/>
</linearGradient>
<linearGradient id="paint8_linear" x1="1.03669e+06" y1="5778.01" x2="1.03669e+06" y2="1705.64" gradientUnits="userSpaceOnUse">
<stop stop-color="#01FCD3"/>
<stop offset="1" stop-color="#01FCD3"/>
</linearGradient>
<linearGradient id="paint9_linear" x1="1.03666e+06" y1="6729.03" x2="1.03666e+06" y2="1953.69" gradientUnits="userSpaceOnUse">
<stop stop-color="#01FCD3"/>
<stop offset="1" stop-color="#01FCD3"/>
</linearGradient>
<linearGradient id="paint10_linear" x1="1.03668e+06" y1="7672.43" x2="1.03668e+06" y2="2199.49" gradientUnits="userSpaceOnUse">
<stop stop-color="#01FCD3"/>
<stop offset="1" stop-color="#01FCD3"/>
</linearGradient>
<linearGradient id="paint11_linear" x1="1.03668e+06" y1="8396.92" x2="1.03668e+06" y2="2387.39" gradientUnits="userSpaceOnUse">
<stop stop-color="#01FCD3"/>
<stop offset="1" stop-color="#01FCD3"/>
</linearGradient>
<linearGradient id="paint12_linear" x1="1.03668e+06" y1="8933.54" x2="1.03668e+06" y2="2525.37" gradientUnits="userSpaceOnUse">
<stop stop-color="#01FCD3"/>
<stop offset="1" stop-color="#01FCD3"/>
</linearGradient>
<linearGradient id="paint13_linear" x1="1.03671e+06" y1="9219.76" x2="1.03671e+06" y2="2596.72" gradientUnits="userSpaceOnUse">
<stop stop-color="#01FCD3"/>
<stop offset="1" stop-color="#01FCD3"/>
</linearGradient>
<linearGradient id="paint14_linear" x1="1.03668e+06" y1="9346.5" x2="1.03668e+06" y2="2625.36" gradientUnits="userSpaceOnUse">
<stop stop-color="#01FCD3"/>
<stop offset="1" stop-color="#01FCD3"/>
</linearGradient>
<linearGradient id="paint15_linear" x1="1.03666e+06" y1="9474.99" x2="1.03666e+06" y2="2654.45" gradientUnits="userSpaceOnUse">
<stop stop-color="#01FCD3"/>
<stop offset="1" stop-color="#01FCD3"/>
</linearGradient>
<linearGradient id="paint16_linear" x1="1.03667e+06" y1="9547.45" x2="1.03667e+06" y2="2669" gradientUnits="userSpaceOnUse">
<stop stop-color="#01FCD3"/>
<stop offset="1" stop-color="#01FCD3"/>
</linearGradient>
<linearGradient id="paint17_linear" x1="1.03671e+06" y1="9567.9" x2="1.03671e+06" y2="2669.99" gradientUnits="userSpaceOnUse">
<stop stop-color="#01FCD3"/>
<stop offset="1" stop-color="#01FCD3"/>
</linearGradient>
<linearGradient id="paint18_linear" x1="1.03668e+06" y1="9542.8" x2="1.03668e+06" y2="2659.16" gradientUnits="userSpaceOnUse">
<stop stop-color="#01FCD3"/>
<stop offset="1" stop-color="#01FCD3"/>
</linearGradient>
<linearGradient id="paint19_linear" x1="1.03668e+06" y1="9476.44" x2="1.03668e+06" y2="2637.62" gradientUnits="userSpaceOnUse">
<stop stop-color="#01FCD3"/>
<stop offset="1" stop-color="#01FCD3"/>
</linearGradient>
<linearGradient id="paint20_linear" x1="1.03669e+06" y1="9324.81" x2="1.03669e+06" y2="2593.83" gradientUnits="userSpaceOnUse">
<stop stop-color="#01FCD3"/>
<stop offset="1" stop-color="#01FCD3"/>
</linearGradient>
<linearGradient id="paint21_linear" x1="1.0367e+06" y1="9223.2" x2="1.0367e+06" y2="2563.28" gradientUnits="userSpaceOnUse">
<stop stop-color="#01FCD3"/>
<stop offset="1" stop-color="#01FCD3"/>
</linearGradient>
<linearGradient id="paint22_linear" x1="1.03666e+06" y1="9100.52" x2="1.03666e+06" y2="2527.28" gradientUnits="userSpaceOnUse">
<stop stop-color="#01FCD3"/>
<stop offset="1" stop-color="#01FCD3"/>
</linearGradient>
<linearGradient id="paint23_linear" x1="1.03668e+06" y1="8970.31" x2="1.03668e+06" y2="2489.44" gradientUnits="userSpaceOnUse">
<stop stop-color="#01FCD3"/>
<stop offset="1" stop-color="#01FCD3"/>
</linearGradient>
<linearGradient id="paint24_linear" x1="1.03671e+06" y1="8832.65" x2="1.03671e+06" y2="2449.71" gradientUnits="userSpaceOnUse">
<stop stop-color="#01FCD3"/>
<stop offset="1" stop-color="#01FCD3"/>
</linearGradient>
<linearGradient id="paint25_linear" x1="1.03667e+06" y1="8693.16" x2="1.03667e+06" y2="2409.57" gradientUnits="userSpaceOnUse">
<stop stop-color="#01FCD3"/>
<stop offset="1" stop-color="#01FCD3"/>
</linearGradient>
<linearGradient id="paint26_linear" x1="1.03668e+06" y1="8511.56" x2="1.03668e+06" y2="2358.44" gradientUnits="userSpaceOnUse">
<stop stop-color="#01FCD3"/>
<stop offset="1" stop-color="#01FCD3"/>
</linearGradient>
<linearGradient id="paint27_linear" x1="1.03666e+06" y1="8381.58" x2="1.03666e+06" y2="2320.94" gradientUnits="userSpaceOnUse">
<stop stop-color="#01FCD3"/>
<stop offset="1" stop-color="#01FCD3"/>
</linearGradient>
<linearGradient id="paint28_linear" x1="1.03666e+06" y1="8265.74" x2="1.03666e+06" y2="2287.19" gradientUnits="userSpaceOnUse">
<stop stop-color="#01FCD3"/>
<stop offset="1" stop-color="#01FCD3"/>
</linearGradient>
<linearGradient id="paint29_linear" x1="1.03666e+06" y1="8174.71" x2="1.03666e+06" y2="2260.03" gradientUnits="userSpaceOnUse">
<stop stop-color="#01FCD3"/>
<stop offset="1" stop-color="#01FCD3"/>
</linearGradient>
<linearGradient id="paint30_linear" x1="1.03671e+06" y1="8096.18" x2="1.03671e+06" y2="2236.12" gradientUnits="userSpaceOnUse">
<stop stop-color="#01FCD3"/>
<stop offset="1" stop-color="#01FCD3"/>
</linearGradient>
<linearGradient id="paint31_linear" x1="1.03668e+06" y1="8057.22" x2="1.03668e+06" y2="2222.65" gradientUnits="userSpaceOnUse">
<stop stop-color="#01FCD3"/>
<stop offset="1" stop-color="#01FCD3"/>
</linearGradient>
<linearGradient id="paint32_linear" x1="1.03668e+06" y1="8038.54" x2="1.03668e+06" y2="2214.51" gradientUnits="userSpaceOnUse">
<stop stop-color="#01FCD3"/>
<stop offset="1" stop-color="#01FCD3"/>
</linearGradient>
<linearGradient id="paint33_linear" x1="1.03671e+06" y1="7987.09" x2="1.03671e+06" y2="2197.7" gradientUnits="userSpaceOnUse">
<stop stop-color="#01FCD3"/>
<stop offset="1" stop-color="#01FCD3"/>
</linearGradient>
<linearGradient id="paint34_linear" x1="1.03668e+06" y1="7909.8" x2="1.03668e+06" y2="2174.07" gradientUnits="userSpaceOnUse">
<stop stop-color="#01FCD3"/>
<stop offset="1" stop-color="#01FCD3"/>
</linearGradient>
<linearGradient id="paint35_linear" x1="1.03671e+06" y1="7797.03" x2="1.03671e+06" y2="2141.04" gradientUnits="userSpaceOnUse">
<stop stop-color="#01FCD3"/>
<stop offset="1" stop-color="#01FCD3"/>
</linearGradient>
<linearGradient id="paint36_linear" x1="1.03668e+06" y1="7661.97" x2="1.03668e+06" y2="2102.16" gradientUnits="userSpaceOnUse">
<stop stop-color="#01FCD3"/>
<stop offset="1" stop-color="#01FCD3"/>
</linearGradient>
<linearGradient id="paint37_linear" x1="1.03671e+06" y1="7500.49" x2="1.03671e+06" y2="2056.3" gradientUnits="userSpaceOnUse">
<stop stop-color="#01FCD3"/>
<stop offset="1" stop-color="#01FCD3"/>
</linearGradient>
<linearGradient id="paint38_linear" x1="1.03668e+06" y1="7320.48" x2="1.03668e+06" y2="2005.59" gradientUnits="userSpaceOnUse">
<stop stop-color="#01FCD3"/>
<stop offset="1" stop-color="#01FCD3"/>
</linearGradient>
<linearGradient id="paint39_linear" x1="1.03668e+06" y1="7116.63" x2="1.03668e+06" y2="1948.59" gradientUnits="userSpaceOnUse">
<stop stop-color="#01FCD3"/>
<stop offset="1" stop-color="#01FCD3"/>
</linearGradient>
<linearGradient id="paint40_linear" x1="1.03667e+06" y1="6890.39" x2="1.03667e+06" y2="1885.69" gradientUnits="userSpaceOnUse">
<stop stop-color="#01FCD3"/>
<stop offset="1" stop-color="#01FCD3"/>
</linearGradient>
<linearGradient id="paint41_linear" x1="1.03668e+06" y1="6657.04" x2="1.03668e+06" y2="1821.01" gradientUnits="userSpaceOnUse">
<stop stop-color="#01FCD3"/>
<stop offset="1" stop-color="#01FCD3"/>
</linearGradient>
<linearGradient id="paint42_linear" x1="1.03668e+06" y1="6404.84" x2="1.03668e+06" y2="1751.37" gradientUnits="userSpaceOnUse">
<stop stop-color="#01FCD3"/>
<stop offset="1" stop-color="#01FCD3"/>
</linearGradient>
<linearGradient id="paint43_linear" x1="1.03668e+06" y1="6150.71" x2="1.03668e+06" y2="1681.34" gradientUnits="userSpaceOnUse">
<stop stop-color="#01FCD3"/>
<stop offset="1" stop-color="#01FCD3"/>
</linearGradient>
<linearGradient id="paint44_linear" x1="1.03668e+06" y1="5883.28" x2="1.03668e+06" y2="1607.84" gradientUnits="userSpaceOnUse">
<stop stop-color="#01FCD3"/>
<stop offset="1" stop-color="#01FCD3"/>
</linearGradient>
<linearGradient id="paint45_linear" x1="1.03668e+06" y1="5617.08" x2="1.03668e+06" y2="1534.78" gradientUnits="userSpaceOnUse">
<stop stop-color="#01FCD3"/>
<stop offset="1" stop-color="#01FCD3"/>
</linearGradient>
<linearGradient id="paint46_linear" x1="1.03663e+06" y1="5356.46" x2="1.03663e+06" y2="1463.35" gradientUnits="userSpaceOnUse">
<stop stop-color="#01FCD3"/>
<stop offset="1" stop-color="#01FCD3"/>
</linearGradient>
<linearGradient id="paint47_linear" x1="1.03672e+06" y1="5077.34" x2="1.03672e+06" y2="1387.03" gradientUnits="userSpaceOnUse">
<stop stop-color="#01FCD3"/>
<stop offset="1" stop-color="#01FCD3"/>
</linearGradient>
<linearGradient id="paint48_linear" x1="1.03668e+06" y1="4905.26" x2="1.03668e+06" y2="1339.68" gradientUnits="userSpaceOnUse">
<stop stop-color="#01FCD3"/>
<stop offset="1" stop-color="#01FCD3"/>
</linearGradient>
<linearGradient id="paint49_linear" x1="1.03668e+06" y1="4693.2" x2="1.03668e+06" y2="1281.64" gradientUnits="userSpaceOnUse">
<stop stop-color="#01FCD3"/>
<stop offset="1" stop-color="#01FCD3"/>
</linearGradient>
<linearGradient id="paint50_linear" x1="1.03671e+06" y1="4524.63" x2="1.03671e+06" y2="1235.47" gradientUnits="userSpaceOnUse">
<stop stop-color="#01FCD3"/>
<stop offset="1" stop-color="#01FCD3"/>
</linearGradient>
<linearGradient id="paint51_linear" x1="1.03668e+06" y1="4388.28" x2="1.03668e+06" y2="1198.05" gradientUnits="userSpaceOnUse">
<stop stop-color="#01FCD3"/>
<stop offset="1" stop-color="#01FCD3"/>
</linearGradient>
<linearGradient id="paint52_linear" x1="1.03665e+06" y1="4274.9" x2="1.03665e+06" y2="1166.89" gradientUnits="userSpaceOnUse">
<stop stop-color="#01FCD3"/>
<stop offset="1" stop-color="#01FCD3"/>
</linearGradient>
<linearGradient id="paint53_linear" x1="1.03666e+06" y1="4178.47" x2="1.03666e+06" y2="1140.39" gradientUnits="userSpaceOnUse">
<stop stop-color="#01FCD3"/>
<stop offset="1" stop-color="#01FCD3"/>
</linearGradient>
<linearGradient id="paint54_linear" x1="1.03666e+06" y1="4100.03" x2="1.03666e+06" y2="1118.8" gradientUnits="userSpaceOnUse">
<stop stop-color="#01FCD3"/>
<stop offset="1" stop-color="#01FCD3"/>
</linearGradient>
<linearGradient id="paint55_linear" x1="1.03667e+06" y1="4102.48" x2="1.03667e+06" y2="1118.63" gradientUnits="userSpaceOnUse">
<stop stop-color="#01FCD3"/>
<stop offset="1" stop-color="#01FCD3"/>
</linearGradient>
<linearGradient id="paint56_linear" x1="1.03671e+06" y1="4209.33" x2="1.03671e+06" y2="1146.04" gradientUnits="userSpaceOnUse">
<stop stop-color="#01FCD3"/>
<stop offset="1" stop-color="#01FCD3"/>
</linearGradient>
<linearGradient id="paint57_linear" x1="1.03669e+06" y1="4320.04" x2="1.03669e+06" y2="1174.59" gradientUnits="userSpaceOnUse">
<stop stop-color="#01FCD3"/>
<stop offset="1" stop-color="#01FCD3"/>
</linearGradient>
<linearGradient id="paint58_linear" x1="1.03668e+06" y1="4432.7" x2="1.03668e+06" y2="1203.78" gradientUnits="userSpaceOnUse">
<stop stop-color="#01FCD3"/>
<stop offset="1" stop-color="#01FCD3"/>
</linearGradient>
<linearGradient id="paint59_linear" x1="1.03665e+06" y1="4548.59" x2="1.03665e+06" y2="1233.93" gradientUnits="userSpaceOnUse">
<stop stop-color="#01FCD3"/>
<stop offset="1" stop-color="#01FCD3"/>
</linearGradient>
<linearGradient id="paint60_linear" x1="1.03666e+06" y1="4656.01" x2="1.03666e+06" y2="1261.93" gradientUnits="userSpaceOnUse">
<stop stop-color="#01FCD3"/>
<stop offset="1" stop-color="#01FCD3"/>
</linearGradient>
<linearGradient id="paint61_linear" x1="1.03668e+06" y1="4761.04" x2="1.03668e+06" y2="1289.38" gradientUnits="userSpaceOnUse">
<stop stop-color="#01FCD3"/>
<stop offset="1" stop-color="#01FCD3"/>
</linearGradient>
<linearGradient id="paint62_linear" x1="1.03668e+06" y1="4857.91" x2="1.03668e+06" y2="1314.73" gradientUnits="userSpaceOnUse">
<stop stop-color="#01FCD3"/>
<stop offset="1" stop-color="#01FCD3"/>
</linearGradient>
<linearGradient id="paint63_linear" x1="1.03668e+06" y1="4946.82" x2="1.03668e+06" y2="1338.06" gradientUnits="userSpaceOnUse">
<stop stop-color="#01FCD3"/>
<stop offset="1" stop-color="#01FCD3"/>
</linearGradient>
<linearGradient id="paint64_linear" x1="1.03668e+06" y1="5032.07" x2="1.03668e+06" y2="1360.51" gradientUnits="userSpaceOnUse">
<stop stop-color="#01FCD3"/>
<stop offset="1" stop-color="#01FCD3"/>
</linearGradient>
<linearGradient id="paint65_linear" x1="1.03668e+06" y1="5096.21" x2="1.03668e+06" y2="1377.38" gradientUnits="userSpaceOnUse">
<stop stop-color="#01FCD3"/>
<stop offset="1" stop-color="#01FCD3"/>
</linearGradient>
<linearGradient id="paint66_linear" x1="1.03668e+06" y1="5151.95" x2="1.03668e+06" y2="1392.1" gradientUnits="userSpaceOnUse">
<stop stop-color="#01FCD3"/>
<stop offset="1" stop-color="#01FCD3"/>
</linearGradient>
<linearGradient id="paint67_linear" x1="1.03666e+06" y1="5186" x2="1.03666e+06" y2="1401.09" gradientUnits="userSpaceOnUse">
<stop stop-color="#01FCD3"/>
<stop offset="1" stop-color="#01FCD3"/>
</linearGradient>
<linearGradient id="paint68_linear" x1="1.03671e+06" y1="5157.63" x2="1.03671e+06" y2="1393.36" gradientUnits="userSpaceOnUse">
<stop stop-color="#01FCD3"/>
<stop offset="1" stop-color="#01FCD3"/>
</linearGradient>
</defs>
</svg>
