<svg width="1440" height="2271" viewBox="0 0 1440 2271" fill="none" xmlns="http://www.w3.org/2000/svg">
<g filter="url(#filter0_f)">
<path d="M621.762 883.34C504.943 720.184 543.123 492.778 706.28 375.96V375.96C869.436 259.141 1097.02 296.265 1213.83 459.422V459.422C1330.65 622.578 1292.47 849.984 1129.32 966.802V966.802C966.16 1083.62 738.58 1046.5 621.762 883.34V883.34Z" fill="url(#paint0_radial)"/>
</g>
<g style="mix-blend-mode:overlay" filter="url(#filter1_f)">
<path d="M1259.08 930.163C1178.25 1097.97 976.067 1168.17 808.262 1087.35V1087.35C640.457 1006.53 569.312 804.667 650.137 636.862V636.862C730.961 469.056 933.148 398.849 1100.95 479.674V479.674C1268.76 560.499 1339.9 762.358 1259.08 930.163V930.163Z" fill="url(#paint1_radial)"/>
</g>
<g filter="url(#filter2_f)">
<path d="M840.977 673.645C780.085 800.067 627.76 852.96 501.338 792.068V792.068C374.916 731.176 321.316 579.098 382.208 452.676V452.676C443.1 326.254 595.425 273.361 721.848 334.253V334.253C848.27 395.145 901.869 547.223 840.977 673.645V673.645Z" fill="url(#paint2_radial)"/>
<path d="M840.977 673.645C780.085 800.067 627.76 852.96 501.338 792.068V792.068C374.916 731.176 321.316 579.098 382.208 452.676V452.676C443.1 326.254 595.425 273.361 721.848 334.253V334.253C848.27 395.145 901.869 547.223 840.977 673.645V673.645Z" stroke="#FD593F" stroke-width="251.681"/>
</g>
<defs>
<filter id="filter0_f" x="12.4348" y="-233.808" width="1810.73" height="1810.38" filterUnits="userSpaceOnUse" color-interpolation-filters="sRGB">
<feFlood flood-opacity="0" result="BackgroundImageFix"/>
<feBlend mode="normal" in="SourceGraphic" in2="BackgroundImageFix" result="shape"/>
<feGaussianBlur stdDeviation="198.904" result="effect1_foregroundBlur"/>
</filter>
<filter id="filter1_f" x="114.425" y="-56.3421" width="1680.36" height="1679.71" filterUnits="userSpaceOnUse" color-interpolation-filters="sRGB">
<feFlood flood-opacity="0" result="BackgroundImageFix"/>
<feBlend mode="normal" in="SourceGraphic" in2="BackgroundImageFix" result="shape"/>
<feGaussianBlur stdDeviation="194.683" result="effect1_foregroundBlur"/>
</filter>
<filter id="filter2_f" x="-1095.53" y="-1143.72" width="3414.25" height="3413.76" filterUnits="userSpaceOnUse" color-interpolation-filters="sRGB">
<feFlood flood-opacity="0" result="BackgroundImageFix"/>
<feBlend mode="normal" in="SourceGraphic" in2="BackgroundImageFix" result="shape"/>
<feGaussianBlur stdDeviation="599.751" result="effect1_foregroundBlur"/>
</filter>
<radialGradient id="paint0_radial" cx="0" cy="0" r="1" gradientUnits="userSpaceOnUse" gradientTransform="translate(866.072 575.982) rotate(60.1557) scale(455.553 456.502)">
<stop offset="0.255208" stop-color="#FD593F"/>
<stop offset="1" stop-color="#2400FF" stop-opacity="0"/>
<stop offset="1" stop-color="#FD593F" stop-opacity="0"/>
</radialGradient>
<radialGradient id="paint1_radial" cx="0" cy="0" r="1" gradientUnits="userSpaceOnUse" gradientTransform="translate(1095.8 799.034) rotate(-89.0752) scale(319.402 320.067)">
<stop stop-color="#FD593F"/>
<stop offset="1" stop-color="#FD593F"/>
</radialGradient>
<radialGradient id="paint2_radial" cx="0" cy="0" r="1" gradientUnits="userSpaceOnUse" gradientTransform="translate(710.554 616.179) rotate(-62.7477) scale(331.586 332.277)">
<stop stop-color="#FD593F"/>
<stop offset="1" stop-color="#FD593F" stop-opacity="0.0750001"/>
</radialGradient>
</defs>
</svg>
