<svg width="1440" height="137" viewBox="0 0 1440 137" fill="none" xmlns="http://www.w3.org/2000/svg">
<path d="M1440 1C960.346 1 480.693 1 1.03915 1" stroke="url(#paint0_linear)" stroke-miterlimit="10"/>
<path d="M1440 4.78757C1197.12 4.75957 954.351 5.43665 711.526 6.20283C606.462 6.53629 500.678 6.42683 395.624 5.72429C264.119 4.84611 132.554 5.67338 1.07908 4.78757" stroke="url(#paint1_linear)" stroke-miterlimit="10"/>
<path d="M1440 8.51902C1371.18 8.51902 1302.34 8.3841 1233.53 8.45029C1172.03 8.50883 1110.68 9.77901 1049.2 9.99792C934.685 10.4052 820.188 9.93174 705.68 10.4128C604.044 10.8405 501.358 11.9732 399.791 10.2448C340.594 9.22665 282.006 8.76338 222.759 8.34338C148.812 7.81902 74.9558 9.24192 1.03915 8.51902" stroke="url(#paint2_linear)" stroke-miterlimit="10"/>
<path d="M1440 12.2C1372.17 12.2 1304.16 11.9098 1236.35 12.2229C1172.62 12.5182 1109.27 14.5877 1045.59 15.1197C930.858 16.0793 817.02 13.3378 702.403 13.8266C601.545 14.2491 502.117 17.6804 401.15 14.6106C342.133 12.816 284.944 11.4109 225.497 11.0011C150.551 10.492 75.975 12.9688 1.03915 12.2" stroke="url(#paint3_linear)" stroke-miterlimit="10"/>
<path d="M1440 15.8095C1373.4 15.8095 1306.31 15.3463 1239.75 15.9852C1173.2 16.6241 1107.6 19.5641 1041.25 20.5135C980.932 21.3764 921.464 21.1448 861.468 19.2663C807.697 17.5812 755.464 16.3645 701.253 16.5477C653.738 16.7106 609.22 18.5484 562.294 20.2615C508.593 22.2241 453.303 21.3077 400.101 18.8081C341.543 16.0539 286.313 13.4194 226.516 13.119C151.091 12.7372 76.5146 16.4688 1.03915 15.8095" stroke="url(#paint4_linear)" stroke-miterlimit="10"/>
<path d="M1440 19.368C1374.84 19.368 1308.68 18.7444 1243.63 19.7422C1174.12 20.8062 1105.79 24.66 1036.43 26.1058C976.879 27.3632 916.929 26.5014 858.31 23.5451C805.978 20.9437 755.384 18.6197 701.893 18.7266C652.359 18.8259 607.541 22.0204 559.456 24.604C504.875 27.5364 450.864 26.424 397.113 22.868C339.505 19.0498 286.323 14.9364 226.117 14.827C150.561 14.687 76.7245 19.7957 1.03915 19.3655" stroke="url(#paint5_linear)" stroke-miterlimit="10"/>
<path d="M1440 22.8711C1376.38 22.8864 1311.19 22.1075 1247.79 23.4693C1175 25.0195 1103.89 29.8024 1031.38 31.8006C970.519 33.4755 914.28 31.9177 855.582 27.71C805.328 24.1057 756.653 20.4962 703.942 20.4886C651.819 20.4886 605.453 25.2868 555.988 28.7893C499.639 32.778 447.677 31.6173 392.616 26.7988C336.577 21.8962 285.124 16.1079 224.588 16.2352C149.142 16.4083 76.6945 22.9882 1.03915 22.8711" stroke="url(#paint6_linear)" stroke-miterlimit="10"/>
<path d="M1440 26.3168C1377.98 26.3397 1313.78 25.4742 1252.14 27.1491C1176.01 29.216 1102.24 34.9229 1026.39 37.4989C964.683 39.5938 911.122 37.3538 853.374 31.7487C805.728 27.1237 758.932 22.1117 707.079 21.9539C652.279 21.7859 602.875 28.376 552.191 32.8127C493.663 37.9367 443.69 36.8473 387.13 30.6033C333.269 24.6571 283.046 17.0233 222.249 17.451C147.074 17.9804 76.5347 26.0724 1.05924 26.3168" stroke="url(#paint7_linear)" stroke-miterlimit="10"/>
<path d="M1440 29.7077C1379.57 29.7382 1316.37 28.8168 1256.39 30.7691C1177.01 33.3527 1100.58 39.9556 1021.56 43.1069C958.608 45.6192 908.084 42.7429 851.555 35.6615C806.847 30.0615 761.94 23.5935 710.807 23.2524C653.328 22.8731 599.957 31.4335 548.104 36.6949C520.944 39.4363 492.314 42.0047 462.706 41.4142C433.727 40.8338 406.286 37.7258 380.945 34.2869C329.862 27.3709 280.098 17.851 219.312 18.579C144.466 19.4775 76.2847 29.0764 1.02906 29.7" stroke="url(#paint8_linear)" stroke-miterlimit="10"/>
<path d="M1439.95 33.0394C1380.99 33.0776 1318.82 32.1333 1260.48 34.3122C1178.07 37.382 1099.25 44.8376 1017.31 48.5336C952.912 51.4405 905.307 47.9812 850.306 39.4412C808.607 32.9656 765.578 25.0518 714.904 24.5147C654.947 23.8809 596.989 34.4547 544.147 40.439C516.467 43.575 485.939 46.8816 455.022 46.1536C426.043 45.4714 398.892 41.7449 374.66 37.8809C326.345 30.1733 277.09 18.7315 216.154 19.7522C141.628 21.0046 76.0755 32.062 1.0197 33.0394" stroke="url(#paint9_linear)" stroke-miterlimit="10"/>
<path d="M1439.94 36.313C1382.39 36.3589 1321.14 35.4145 1264.29 37.7538C1179.19 41.2588 1098.25 49.501 1013.77 53.6908C981.601 55.2842 951.113 56.2057 919.606 53.4108C893.934 51.1326 871.351 47.1337 849.567 43.0916C810.595 35.865 769.454 26.5971 718.901 25.8716C656.746 24.9782 594.131 37.4687 540.43 44.0639C512.27 47.5232 479.863 51.5297 447.767 50.6821C418.658 49.9184 391.867 45.6243 368.674 41.3836C322.927 33.0243 274.262 19.7931 212.996 21.0735C138.74 22.6287 75.9052 35.0556 0.979338 36.3258" stroke="url(#paint10_linear)" stroke-miterlimit="10"/>
<path d="M1439.93 39.5329C1383.59 39.5813 1323.16 38.642 1267.62 41.0882C1180.37 44.9318 1097.89 53.8816 1011.28 58.466C979.003 60.174 948.605 61.2329 917.258 58.0613C891.826 55.4725 870.152 51.0307 849.427 46.5915C812.743 38.7439 773.322 28.3126 722.518 27.4344C690.052 26.8719 657.405 31.1864 629.366 34.8391C598.258 38.8915 568.35 43.5089 537.252 47.5664C508.673 51.2929 474.697 55.8645 441.521 54.91C412.202 54.0674 385.831 49.3355 363.467 44.7791C319.819 35.87 272.074 21.1421 210.218 22.6337C136.092 24.4155 75.8853 38.0795 0.969389 39.5431" stroke="url(#paint11_linear)" stroke-miterlimit="10"/>
<path d="M1439.92 42.6945C1384.59 42.7429 1324.8 41.8011 1270.33 44.2931C1181.54 48.353 1098.1 57.9137 1010.04 62.7832C977.913 64.565 947.286 65.7028 916.258 62.3046C890.856 59.5225 869.831 54.6988 849.856 49.9541C814.701 41.6076 776.769 30.3109 725.346 29.336C691.99 28.7098 658.394 33.3833 629.915 37.2473C597.768 41.6127 566.96 46.5814 534.813 50.9519C505.834 54.8948 470.86 59.8254 436.794 58.8199C407.166 57.9443 381.244 52.917 359.49 48.0985C317.19 38.7338 270.904 22.9495 208.059 24.5404C133.933 26.4164 76.0247 41.1774 0.958891 42.6843" stroke="url(#paint12_linear)" stroke-miterlimit="10"/>
<path d="M1439.9 45.8004C1385.35 45.8411 1325.93 44.8815 1272.26 47.3531C1182.72 51.4767 1099.05 61.5389 1010.31 66.5407C978.623 68.3225 947.426 69.4832 916.838 66.0621C891.227 63.1985 870.492 58.1153 850.886 53.1695C816.291 44.4284 779.477 32.6786 726.975 31.7317C692.88 31.1157 659.194 35.8375 630.315 39.8771C597.489 44.4589 566.111 49.6822 533.295 54.2691C503.946 58.3723 468.822 63.3818 434.057 62.384C404.078 61.5236 378.597 56.4047 357.112 51.38C315.143 41.5673 271.064 25.3834 206.751 26.959C132.435 28.779 76.2751 44.4488 0.899557 45.7953" stroke="url(#paint13_linear)" stroke-miterlimit="10"/>
<path d="M1439.89 48.8547C1385.54 48.9413 1326.31 47.862 1272.87 50.382C1183.93 54.5845 1101.33 64.947 1013.3 70.0659C981.701 71.9012 950.523 73.0008 919.955 69.6205C893.974 66.7416 872.829 61.5972 852.934 56.5903C817.699 47.722 780.496 35.8221 727.304 34.7122C692.969 33.997 659.483 38.6602 630.474 42.7635C597.598 47.4166 566.281 52.7416 533.414 57.3972C503.926 61.5769 468.981 66.5176 433.956 65.4485C403.778 64.527 378.446 59.398 356.922 54.3173C314.782 44.3671 271.544 28.397 206.72 29.881C132.194 31.5813 76.6143 47.6787 0.928984 48.8547" stroke="url(#paint14_linear)" stroke-miterlimit="10"/>
<path d="M1439.88 51.8407C1385.3 51.9985 1326.25 50.6367 1272.62 53.3323C1185.26 57.7232 1104.52 68.2562 1018.09 73.5559C986.118 75.5184 955.759 76.5391 924.752 73.1359C898.301 70.2366 876.407 65.1457 855.782 60.1821C819.378 51.4105 780.606 39.3909 727.414 37.8763C693.289 36.904 659.683 41.58 630.924 45.6807C598.447 50.3108 567.6 55.641 535.133 60.2763C505.704 64.4788 470.76 69.3813 435.785 68.1111C405.697 67.0191 379.995 61.8163 358.171 56.7915C315.812 47.0425 271.324 31.3727 207.28 32.8134C132.574 34.496 76.8142 50.685 0.948957 51.8407" stroke="url(#paint15_linear)" stroke-miterlimit="10"/>
<path d="M1439.86 54.7755C1384.97 54.9639 1326.08 53.2228 1272.12 56.0762C1186.54 60.602 1107.91 71.2725 1023.3 76.6943C991.054 78.7663 961.405 79.6903 930.048 76.3303C903.188 73.4514 880.414 68.4929 859.019 63.5675C821.397 54.913 780.836 42.9366 727.694 41.0555C693.879 39.8566 660.533 44.4359 632.033 48.5188C600.106 53.1006 569.908 58.3977 538.001 62.9769C508.662 67.1871 474.047 71.9496 439.233 70.4987C409.114 69.2413 382.953 64.0155 360.639 59.0442C317.72 49.4988 271.774 34.221 208.219 35.6414C133.184 37.3163 77.1141 53.6097 0.919167 54.7602" stroke="url(#paint16_linear)" stroke-miterlimit="10"/>
<path d="M1439.84 57.6538C1384.57 57.8345 1325.71 55.6327 1271.37 58.6312C1187.75 63.241 1111.41 74.021 1028.79 79.537C996.411 81.698 967.322 82.51 935.704 79.2468C908.364 76.4264 884.741 71.6104 862.517 66.7741C823.326 58.2749 781.346 46.4716 728.054 44.2444C694.639 42.8495 661.882 47.2302 633.663 51.2851C602.435 55.7752 573.006 61.0265 541.799 65.5217C512.57 69.7345 478.625 74.2602 444.019 72.649C413.761 71.2363 387.061 66.0308 364.077 61.1283C320.299 51.7941 272.713 36.9847 209.499 38.3975C134.003 40.0851 77.5043 56.488 0.849635 57.6461" stroke="url(#paint17_linear)" stroke-miterlimit="10"/>
<path d="M1439.83 60.4771C1384.11 60.6197 1325.27 57.8884 1270.44 61.0167C1188.92 65.6673 1115 76.544 1034.51 82.0905C1002.16 84.3254 973.467 85.0203 941.69 81.8996C913.86 79.1658 889.407 74.5178 866.274 69.8291C825.304 61.5233 782.045 50.0026 728.554 47.4546C664 44.3772 598.767 60.3931 546.455 67.9429C517.336 72.148 484.31 76.3607 450.005 74.5967C419.507 73.0262 392.247 67.8716 368.474 63.0429C323.586 53.9277 274.222 39.6477 211.167 41.0681C135.112 42.7786 78.0734 59.3011 0.869169 60.4771" stroke="url(#paint18_linear)" stroke-miterlimit="10"/>
<path d="M1439.81 63.241C1383.6 63.32 1324.75 60.0032 1269.35 63.241C1190.02 67.8941 1118.65 78.8217 1040.4 84.3861C1008.15 86.677 979.742 87.2471 947.875 84.3072C919.536 81.6879 894.234 77.2461 870.192 72.705C827.442 64.636 782.895 53.4996 729.133 50.636C665.559 47.2557 603.134 62.8083 551.791 70.2359C523.402 74.3366 490.306 78.4705 456.94 76.3577C425.962 74.3977 398.672 69.6454 373.55 64.809C327.373 55.9254 276.11 42.2233 213.056 43.6589C136.351 45.4026 78.7031 62.0498 0.849272 63.2589" stroke="url(#paint19_linear)" stroke-miterlimit="10"/>
<path d="M1439.79 65.9521C1383.05 65.9521 1324.14 61.999 1268.12 65.3565C1191.05 69.9764 1122.3 80.9499 1046.35 86.4837C914.45 96.1029 845.639 60.5914 729.773 53.795C667.318 50.1271 608.051 65.1197 557.637 72.3972C529.378 76.4699 497.561 80.1786 464.614 77.9462C433.247 75.8208 405.317 71.1728 379.186 66.4281C331.57 57.7736 278.319 44.6951 215.134 46.1536C137.72 47.9354 79.3925 64.7125 0.819225 65.9521" stroke="url(#paint20_linear)" stroke-miterlimit="10"/>
<path d="M1439.77 68.6045C1382.48 68.4976 1323.47 63.8954 1266.79 67.3521C1192.01 71.911 1125.89 82.9099 1052.31 88.3953C923.133 98.0222 844.46 64.2136 730.462 56.9311C669.087 53.006 613.377 67.3343 563.883 74.4718C535.743 78.5292 505.315 81.7492 472.838 79.415C441.051 77.1241 412.412 72.5932 385.232 67.9478C336.087 59.5478 280.807 47.098 217.353 48.5897C139.179 50.4249 80.1221 67.3241 0.78935 68.6045" stroke="url(#paint21_linear)" stroke-miterlimit="10"/>
<path d="M1439.75 71.2006C1381.89 70.9842 1322.76 65.7101 1265.37 69.2534C1192.88 73.7282 1129.46 84.7398 1058.17 90.1515C931.727 99.7503 843.321 67.7897 731.172 60.021C670.895 55.8465 618.973 69.4697 570.348 76.4671C542.308 80.5017 513.389 83.2049 481.412 80.7944C449.185 78.3533 419.807 73.9217 391.547 69.3908C340.824 61.2454 283.505 49.4447 219.731 50.9694C140.788 52.8607 80.9515 69.8872 0.829321 71.2108" stroke="url(#paint22_linear)" stroke-miterlimit="10"/>
<path d="M1439.73 73.7412C1381.31 73.4128 1322.02 67.4641 1263.86 71.0812C1193.61 75.4542 1132.81 86.4709 1063.81 91.7909C940.061 101.334 842.202 71.2924 731.892 63.0579C672.704 58.639 624.679 71.5368 576.883 78.3993C548.964 82.4084 521.454 84.5797 490.006 82.0826C457.33 79.4862 427.182 75.1666 397.863 70.7477C345.551 62.8568 286.213 51.7078 222.04 53.2707C142.267 55.2154 81.6911 72.3615 0.769499 73.7412" stroke="url(#paint23_linear)" stroke-miterlimit="10"/>
<path d="M1439.71 76.2237C1380.75 75.7859 1321.26 69.1779 1262.43 72.8561C1194.34 77.1146 1136.11 88.1288 1069.31 93.3444C948.005 102.813 841.072 74.727 732.551 66.0318C674.442 61.3736 630.324 73.5459 583.308 80.2863C555.508 84.2699 529.347 85.9092 498.5 83.3408C465.374 80.5866 434.466 76.3663 404.098 72.0696C350.247 64.4485 288.931 53.9282 224.318 55.5242C143.746 57.5223 82.4202 74.8085 0.709164 76.2186" stroke="url(#paint24_linear)" stroke-miterlimit="10"/>
<path d="M1439.69 78.6511C1380.14 78.109 1320.51 70.8672 1260.96 74.5962C1194.92 78.7326 1139.15 89.7391 1074.42 94.8427C955.45 104.225 839.964 78.0886 733.261 68.9326C676.122 64.0301 635.951 75.5279 589.584 82.1333C561.874 86.0788 537.082 87.2242 506.754 84.582C473.198 81.67 441.541 77.5337 410.184 73.3617C354.854 66.0028 291.65 56.101 226.587 57.7378C145.255 59.7868 83.2101 77.1977 0.749673 78.6511" stroke="url(#paint25_linear)" stroke-miterlimit="10"/>
<path d="M1439.67 81.021C1379.56 80.3897 1319.76 72.5523 1259.54 76.3196C1195.39 80.3312 1141.93 91.3377 1079.14 96.3217C1018.23 101.158 953.442 95.6981 896.553 89.8639C841.692 84.2359 789.54 76.8541 733.86 71.7505C677.441 66.5782 641.457 77.5338 595.44 83.9686C534.334 92.5086 471.749 81.6777 415.82 74.6549C359.151 67.548 294.168 58.2367 228.675 59.9091C146.624 62.0014 83.8996 79.5345 0.709684 81.0236" stroke="url(#paint26_linear)" stroke-miterlimit="10"/>
<path d="M1439.65 83.3377C1378.98 82.6326 1319.17 74.253 1258.18 78.0482C1195.74 81.9377 1144.4 92.9365 1083.31 97.8111C1022.96 102.632 956.459 97.3962 899.3 92.0533C843.331 86.8198 790.059 79.9089 734.389 74.4719C678.72 69.0348 646.203 79.4533 600.776 85.7966C541.059 94.1329 475.866 82.4875 420.906 75.9584C363.048 69.0857 296.416 60.3396 230.563 62.0348C147.873 64.1654 84.5287 81.8155 0.729212 83.3377" stroke="url(#paint27_linear)" stroke-miterlimit="10"/>
<path d="M1439.63 85.596C1378.39 84.8324 1318.63 75.9844 1256.93 79.8026C1195.98 83.5724 1146.53 94.5662 1087.05 99.3465C1027.17 104.145 959.147 99.1225 901.729 94.2225C844.77 89.3582 790.429 82.8622 734.849 77.0917C708.628 74.3706 689.412 74.2586 664.06 77.7688C643.455 80.6222 626.028 84.7662 605.453 87.64C578.002 91.4785 556.138 91.3716 527.389 88.5182C492.844 85.0844 459.188 81.1364 425.293 77.3004C366.465 70.6619 298.384 62.4248 232.232 64.1354C148.972 66.2888 85.0983 84.056 0.699262 85.596" stroke="url(#paint28_linear)" stroke-miterlimit="10"/>
<path d="M1439.61 87.8004C1377.8 87.0368 1318.22 77.7662 1255.8 81.5971C1196.06 85.2651 1148.3 96.2996 1090.02 100.958C1030.45 105.72 961.176 100.907 903.527 96.376C845.879 91.8451 790.529 85.6851 735.129 79.5761C709.527 76.7532 690.811 76.3535 665.679 79.8459C645.753 82.6153 629.126 86.7033 609.25 89.4931C581.95 93.3266 560.425 92.9193 532.176 89.9717C497.461 86.3495 463.285 82.4091 428.75 78.6801C369.183 72.2503 299.773 64.4714 233.521 66.187C149.802 68.3532 85.4981 86.2273 0.689306 87.7775" stroke="url(#paint29_linear)" stroke-miterlimit="10"/>
<path d="M1439.59 89.9433C1377.21 89.2 1317.96 79.6088 1254.84 83.4499C1195.99 87.0364 1149.72 98.1549 1092.25 102.676C1032.75 107.362 962.735 102.767 904.727 98.5596C846.249 94.3215 790.419 88.4186 735.249 81.9735C710.167 79.0463 691.66 78.4303 666.718 81.9226C647.332 84.6335 631.374 88.696 612.048 91.4324C584.877 95.2786 563.373 94.6549 535.553 91.5953C500.788 87.7771 466.213 83.8266 431.148 80.1764C371.192 73.9325 300.623 66.5558 234.421 68.2587C150.371 70.4223 85.758 88.3982 0.589535 89.9433" stroke="url(#paint30_linear)" stroke-miterlimit="10"/>
<path d="M1439.57 92.0328C1376.62 91.3582 1317.88 81.5354 1254.06 85.3866C1195.82 88.9019 1150.55 100.069 1093.77 104.536C1034.46 109.199 963.524 104.704 905.366 100.759C846.289 96.7495 790.209 91.007 735.299 84.2132C710.627 81.1586 692.02 80.4204 667.208 83.9357C648.222 86.6262 632.763 90.6913 613.807 93.4073C586.736 97.2866 564.932 96.5535 537.442 93.3539C502.747 89.3168 467.912 85.3382 432.458 81.7492C372.321 75.663 300.933 68.6172 235 70.2947C150.751 72.4354 85.9778 90.508 0.609465 92.0328" stroke="url(#paint31_linear)" stroke-miterlimit="10"/>
<path d="M1439.54 94.069C1376.27 93.4632 1317.94 83.5334 1253.73 87.4203C1195.69 90.933 1150.69 102.09 1094.09 106.532C1034.84 111.18 963.584 106.593 905.406 102.731C846.119 98.7959 790.219 93.0967 735.239 86.2723C710.656 83.2178 691.79 82.5814 667.148 86.0738C648.291 88.7465 632.932 92.7759 614.076 95.4563C587.096 99.2897 564.892 98.577 537.661 95.2858C503.116 91.1112 468.241 87.1022 432.637 83.5487C372.79 77.5745 300.473 70.6077 235.05 72.3487C150.921 74.5836 85.7276 92.3509 0.57913 94.0614" stroke="url(#paint32_linear)" stroke-miterlimit="10"/>
<path d="M1439.52 96.0729C1376.11 95.4976 1317.95 85.5017 1253.59 89.4344C1195.64 92.9777 1150.41 104.04 1093.77 108.454C1034.52 113.071 963.424 108.283 905.336 104.397C846.239 100.441 790.579 94.7518 735.219 88.2508C682.817 82.0984 656.846 91.5598 613.687 97.4602C586.706 101.149 564.362 100.477 537.382 97.1725C502.987 92.9598 468.172 88.9609 432.578 85.4482C373.081 79.5784 299.823 72.5784 234.87 74.4672C151.101 76.9057 85.1085 93.95 0.529566 96.0347" stroke="url(#paint33_linear)" stroke-miterlimit="10"/>
<path d="M1439.5 98.0457C1375.9 97.4908 1317.88 87.421 1253.32 91.3868C1195.37 94.9504 1149.96 105.896 1093.29 110.269C1034.04 114.851 963.155 109.879 905.156 105.98C846.289 102.022 790.839 96.3581 735.159 90.1854C683.197 84.4225 656.296 93.7159 613.107 99.349C586.127 102.877 563.583 102.225 536.842 98.9163C502.607 94.6806 467.892 90.7123 432.308 87.2607C373.051 81.5105 299.064 74.5843 234.651 76.6003C151.301 79.2069 84.4991 95.5104 0.539701 97.9261" stroke="url(#paint34_linear)" stroke-miterlimit="10"/>
<path d="M1439.48 99.9825C1375.66 99.4429 1317.73 89.2916 1252.93 93.2753C1195.05 96.8338 1149.37 107.654 1092.66 111.982C1033.41 116.487 962.754 111.391 904.866 107.489C846.279 103.544 790.948 97.9233 735.069 92.0916C683.476 86.7131 655.656 95.8004 612.357 101.171C585.307 104.524 562.593 103.872 536.053 100.565C502.007 96.3222 467.362 92.3996 431.838 89.0295C372.73 83.4168 298.294 76.6611 234.32 78.7815C151.38 81.528 83.8091 97.0654 0.489222 99.7789" stroke="url(#paint35_linear)" stroke-miterlimit="10"/>
<path d="M1439.46 101.887C1375.37 101.352 1317.55 91.1221 1252.43 95.1083C1194.59 98.6465 1148.63 109.345 1091.87 113.586C1032.64 118.012 962.345 112.802 904.477 108.912C846.209 104.992 791.049 99.4305 734.939 93.9501C683.736 88.9483 654.937 97.7963 611.439 102.877C584.298 106.049 561.405 105.374 535.034 102.078C501.255 97.8129 466.592 94.018 431.199 90.7098C372.141 85.2523 297.495 78.7462 233.891 80.9633C151.491 83.8218 83.0902 98.5752 0.499846 101.546" stroke="url(#paint36_linear)" stroke-miterlimit="10"/>
<path d="M1439.43 103.755C1375.05 103.22 1317.25 92.9012 1251.81 96.8823C1194.02 100.392 1147.75 110.948 1090.92 115.103C1031.71 119.43 961.715 114.138 903.957 110.266C845.999 106.387 790.989 100.902 734.749 95.7776C683.926 91.1449 654.087 99.7307 610.329 104.503C583.059 107.479 559.995 106.766 533.774 103.485C500.198 99.2486 465.662 95.5248 430.349 92.3336C371.262 87.0467 296.625 80.8944 233.361 83.17C151.49 86.1151 82.3102 100.062 0.439357 103.264" stroke="url(#paint37_linear)" stroke-miterlimit="10"/>
<path d="M1439.41 105.583C1374.7 105.046 1316.91 94.6372 1251.1 98.5877C1193.35 102.055 1146.75 112.458 1089.9 116.513C1030.73 120.733 961.096 115.378 903.387 111.539C845.859 107.721 790.869 102.322 734.569 97.5619C684.106 93.2932 653.168 101.586 609.11 106.036C581.69 108.805 558.447 108.039 532.335 104.763C498.989 100.567 464.608 96.9269 429.41 93.8659C370.222 88.7751 295.816 83.0325 232.822 85.3616C151.52 88.3652 81.5909 101.49 0.459494 104.888" stroke="url(#paint38_linear)" stroke-miterlimit="10"/>
<path d="M1439.39 107.375C1374.32 106.825 1316.48 96.3171 1250.29 100.247C1192.58 103.653 1145.64 113.891 1088.73 117.836C1029.6 121.934 960.346 116.541 902.768 112.745C845.639 108.978 790.709 103.701 734.389 99.308C684.276 95.4008 652.179 103.381 607.791 107.489C580.201 110.035 556.778 109.21 530.747 105.962C497.621 101.815 463.383 98.2727 428.291 95.36C368.913 90.4651 294.927 85.2088 232.162 87.5786C151.451 90.6331 80.8015 102.905 0.429533 106.479" stroke="url(#paint39_linear)" stroke-miterlimit="10"/>
<path d="M1439.37 109.126C1373.91 108.561 1316.08 97.9512 1249.4 101.828C1191.73 105.183 1144.42 115.247 1087.45 119.071C1028.37 123.034 959.547 117.622 902.049 113.875C845.319 110.177 790.439 105.033 734.17 101.011C684.396 97.4472 651.07 105.101 606.332 108.856C578.552 111.185 554.949 110.271 528.978 107.074C496.084 102.991 462.009 99.556 427.052 96.8006C367.445 92.1297 294.058 87.4156 231.473 89.8134C151.361 92.8679 80.0422 104.297 0.429726 108.018" stroke="url(#paint40_linear)" stroke-miterlimit="10"/>
<path d="M1439.35 110.833C1373.48 110.248 1315.59 99.5367 1248.49 103.36C1190.79 106.636 1143.11 116.528 1086.08 120.218C1027.05 124.037 958.708 118.628 901.209 114.937C844.9 111.317 790.059 106.32 733.85 102.673C684.416 99.4629 649.791 106.761 604.683 110.144C576.704 112.241 552.931 111.238 526.979 108.056C494.325 104.045 460.42 100.73 425.613 98.1469C365.776 93.7153 293.128 89.5815 230.683 92.0073C151.201 95.0796 79.2427 105.618 0.389677 109.466" stroke="url(#paint41_linear)" stroke-miterlimit="10"/>
<path d="M1439.33 112.49C1373.05 111.887 1315.09 101.074 1247.4 104.834C1189.79 108.036 1141.72 117.734 1084.62 121.285C1025.66 124.953 957.788 119.556 900.42 115.939C844.52 112.406 789.72 107.575 733.63 104.299C684.506 101.428 648.512 108.372 603.054 111.365C574.875 113.226 550.912 112.129 524.951 108.97C492.543 105.038 458.82 101.853 424.184 99.4525C363.957 95.278 292.209 91.7908 229.864 94.2115C151.001 97.266 78.4733 106.918 0.369719 110.877" stroke="url(#paint42_linear)" stroke-miterlimit="10"/>
<path d="M1439.31 114.119C1372.55 113.48 1314.48 102.563 1246.31 106.251C1188.71 109.364 1140.22 118.869 1083.08 122.272C1024.17 125.778 956.809 120.412 899.52 116.856C844.041 113.412 789.28 108.764 733.341 105.859C684.506 103.314 647.093 109.884 601.296 112.478C572.906 114.094 548.764 112.88 522.763 109.764C490.601 105.921 457.065 102.873 422.615 100.664C362.019 96.7645 291.27 93.9467 229.005 96.37C150.761 99.4118 77.714 108.143 0.349821 112.192" stroke="url(#paint43_linear)" stroke-miterlimit="10"/>
<path d="M1439.29 115.695C1372.05 115.023 1313.88 104.002 1245.14 107.608C1187.59 110.63 1138.71 119.933 1081.47 123.181C1022.64 126.521 955.8 121.193 898.601 117.716C843.521 114.369 788.83 109.917 733.071 107.384C684.486 105.178 645.624 111.35 599.477 113.557C570.888 114.924 546.575 113.59 520.484 110.503C488.573 106.755 455.231 103.855 420.986 101.848C360.03 98.2437 290.36 96.1259 228.125 98.539C150.491 101.545 76.9845 109.355 0.329863 113.486" stroke="url(#paint44_linear)" stroke-miterlimit="10"/>
<path d="M1439.27 117.223C1371.56 116.515 1313.24 105.389 1243.97 108.909C1186.41 111.834 1137.12 120.931 1079.81 124.019C1021.06 127.183 954.75 121.909 897.591 118.513C842.901 115.263 788.29 111.025 732.711 108.861C684.335 106.98 643.995 112.75 597.518 114.55C568.719 115.667 544.237 114.206 518.046 111.165C486.383 107.514 453.236 104.763 419.207 102.963C357.841 99.6718 289.361 98.2769 227.146 100.672C150.201 103.64 76.2546 110.508 0.309416 114.708" stroke="url(#paint45_linear)" stroke-miterlimit="10"/>
<path d="M1439.25 118.702C1371.05 117.956 1312.58 106.738 1242.74 110.151C1185.18 112.974 1135.48 121.866 1078.1 124.785C1019.43 127.763 953.661 122.555 896.573 119.246C842.252 116.098 787.741 112.086 732.401 110.289C684.196 108.723 642.386 114.084 595.61 115.477C566.631 116.339 541.959 114.746 515.668 111.742C484.251 108.195 451.305 105.602 417.509 104.017C355.753 101.057 288.482 100.397 226.267 102.775C149.882 105.692 75.6456 111.61 0.359927 115.871" stroke="url(#paint46_linear)" stroke-miterlimit="10"/>
<path d="M1439.23 120.127C1370.53 119.343 1311.89 108.01 1241.49 111.335C1183.94 114.056 1133.8 122.733 1076.35 125.472C1017.78 128.272 952.562 123.123 895.483 119.905C841.522 116.851 787.131 113.086 732.021 111.653C683.906 110.401 640.667 115.344 593.531 116.326C564.342 116.935 539.57 115.201 513.029 112.238C481.855 108.797 449.11 106.365 415.56 104.999C274.661 99.0708 136.591 109.072 0.219669 116.963" stroke="url(#paint47_linear)" stroke-miterlimit="10"/>
<path d="M1439.21 121.507C1370 120.68 1311.19 109.248 1240.21 112.468C1182.67 115.08 1132.09 123.541 1074.57 126.119C1016.11 128.741 951.433 123.655 894.474 120.532C840.823 117.582 786.592 114.062 731.731 113C683.626 112.061 639.028 116.564 591.543 117.149C562.184 117.506 537.202 115.622 510.511 112.702C479.693 109.309 446.967 107.146 413.741 105.949C276.43 101.004 133.214 110.185 0.249601 118.022" stroke="url(#paint48_linear)" stroke-miterlimit="10"/>
<path d="M1439.19 122.83C1369.47 121.96 1310.48 110.429 1238.93 113.542C1181.37 116.054 1130.37 124.289 1072.79 126.694C1014.42 129.13 950.304 124.113 893.405 121.094C840.043 118.256 786.002 114.985 731.392 114.27C683.196 113.639 637.34 117.716 589.494 117.887C559.965 117.991 534.824 115.96 507.923 113.076C477.305 109.795 444.799 107.817 411.852 106.835C349.088 104.964 285.444 106.557 223.199 108.846C148.513 111.592 73.7166 114.606 0.229704 119.027" stroke="url(#paint49_linear)" stroke-miterlimit="10"/>
<path d="M1439.17 124.1C1369.54 123.202 1310.63 111.65 1239.15 114.496C1181.82 116.787 1130.72 124.701 1073.58 127.101C1015.83 129.527 953.002 124.714 896.602 121.807C842.082 119.007 786.852 115.878 731.042 115.486C681.498 115.138 633.223 118.991 583.788 118.541C553.95 118.269 529.078 115.784 501.728 113.025C473.318 110.159 443.32 108.517 412.982 107.741C348.408 106.089 284.364 108.525 220.561 110.823C146.914 113.475 72.6074 115.517 0.179652 119.951" stroke="url(#paint50_linear)" stroke-miterlimit="10"/>
<path d="M1439.16 125.315C1369.05 124.373 1309.9 112.725 1237.89 115.462C1180.55 117.641 1129.04 125.346 1071.82 127.57C1014.18 129.8 951.853 125.055 895.533 122.243C841.272 119.529 786.252 116.643 730.732 116.643C680.898 116.643 631.554 119.985 581.71 119.132C551.831 118.623 526.75 115.996 499.189 113.295C470.97 110.531 441.171 109.062 411.093 108.482C346.31 107.232 283.375 110.447 219.581 112.682C146.414 115.245 72.1179 116.337 0.199797 120.827" stroke="url(#paint51_linear)" stroke-miterlimit="10"/>
<path d="M1439.14 126.47C1368.5 125.485 1309.23 113.743 1236.61 116.372C1179.25 118.449 1127.35 125.938 1070.04 127.99C1012.52 130.054 950.683 125.342 894.394 122.621C840.433 120.007 785.623 117.38 730.392 117.752C680.199 118.09 629.885 120.931 579.621 119.681C549.703 118.935 524.421 116.169 496.681 113.526C468.701 110.861 439.043 109.566 409.244 109.181C344.291 108.339 282.396 112.317 218.622 114.491C145.914 116.97 71.728 117.108 0.229643 121.654" stroke="url(#paint52_linear)" stroke-miterlimit="10"/>
<path d="M1439.12 127.567C1367.99 126.549 1308.48 114.707 1235.34 117.227C1177.97 119.205 1125.67 126.49 1068.27 128.359C1010.87 130.227 949.534 125.579 893.395 122.952C839.564 120.432 785.013 118.052 730.083 118.798C679.449 119.485 628.276 121.817 577.593 120.175C547.614 119.205 522.153 116.288 494.153 113.707C466.153 111.126 436.874 110.016 407.356 109.823C342.403 109.393 281.327 114.117 217.623 116.23C145.335 118.627 71.2085 117.813 0.189801 122.425" stroke="url(#paint53_linear)" stroke-miterlimit="10"/>
<path d="M1439.11 128.606C1367.49 127.537 1307.77 115.625 1234.11 118.028C1176.71 119.909 1124.03 126.972 1066.55 128.683C1009.31 130.386 948.355 125.768 892.316 123.23C838.644 120.802 784.394 118.672 729.733 119.784C678.6 120.825 626.667 122.65 575.534 120.624C545.646 119.438 519.885 116.368 491.685 113.845C464.005 111.371 434.726 110.419 405.527 110.412C340.574 110.391 280.278 115.838 216.664 117.895C144.715 120.222 70.7689 118.458 0.189855 123.144" stroke="url(#paint54_linear)" stroke-miterlimit="10"/>
<path d="M1439.1 129.581C1367 128.476 1307.1 116.464 1232.91 118.776C1175.48 120.557 1122.42 127.43 1064.87 128.957C1007.69 130.485 947.346 125.903 891.296 123.454C837.735 121.123 783.754 119.231 729.413 120.705C677.73 122.105 625.128 123.424 573.526 121.021C543.647 119.633 517.666 116.408 489.256 113.944C461.706 111.557 432.677 110.775 403.748 110.948C338.895 111.333 279.228 117.477 215.704 119.486C144.166 121.746 70.4089 119.033 0.159585 123.813" stroke="url(#paint55_linear)" stroke-miterlimit="10"/>
<path d="M1439.08 130.495C1366.53 129.352 1306.42 117.259 1231.74 119.468C1174.28 121.171 1120.82 127.822 1063.24 129.205C1006.18 130.574 946.327 126 890.307 123.643C836.846 121.4 783.135 119.746 729.104 121.573C676.841 123.34 623.59 124.16 571.627 121.388C541.779 119.797 515.578 116.419 486.918 114.006C459.538 111.715 430.659 111.084 401.98 111.432C337.297 112.214 278.139 119.025 214.725 120.99C143.526 123.197 69.9896 119.542 0.0801355 124.417" stroke="url(#paint56_linear)" stroke-miterlimit="10"/>
<path d="M1439.07 131.345C1366.12 130.166 1305.79 117.986 1230.63 120.107C1173.14 121.731 1119.38 128.181 1061.67 129.41C1004.71 130.622 945.297 126.055 889.367 123.78C835.976 121.603 782.535 120.198 728.823 122.372C675.952 124.51 622.22 124.841 569.808 121.71C540.02 119.928 513.569 116.398 484.72 114.041C457.479 111.816 428.76 111.355 400.381 111.87C335.927 113.038 277.18 120.478 213.885 122.418C142.936 124.584 69.6994 119.992 0.0997062 124.984" stroke="url(#paint57_linear)" stroke-miterlimit="10"/>
<path d="M1439.06 132.126C1365.65 130.919 1305.16 118.658 1229.58 120.694C1172.04 122.242 1117.95 128.501 1060.18 129.581C1003.32 130.642 944.358 126.075 888.478 123.871C835.137 121.766 781.955 120.595 728.544 123.107C675.132 125.62 620.871 125.472 568.049 121.995C538.331 120.038 511.62 116.395 482.611 114.048C455.631 111.862 426.871 111.587 398.842 112.266C334.648 113.794 276.23 121.835 213.066 123.749C142.427 125.89 69.3995 120.369 0.099577 125.495" stroke="url(#paint58_linear)" stroke-miterlimit="10"/>
<path d="M1439 132.854C1365.19 131.622 1304.57 119.28 1228.54 121.237C1171.02 122.711 1116.61 128.782 1058.78 129.721C1002.04 130.642 943.458 126.061 887.639 123.92C834.327 121.884 781.396 120.934 728.294 123.777C674.193 126.672 619.612 126.068 566.411 122.25C536.752 120.127 509.812 116.347 480.633 114.033C453.762 111.903 425.153 111.781 397.413 112.598C367.145 113.491 337.636 115.538 308.577 117.808C277.22 120.255 244.953 123.986 212.287 124.974C141.887 127.104 69.11 120.667 0.089861 125.946" stroke="url(#paint59_linear)" stroke-miterlimit="10"/>
<path d="M1439 133.49C1364.83 132.238 1304.1 119.816 1227.63 121.707C1170.06 123.133 1115.36 129.036 1057.46 129.835C1000.81 130.627 942.649 126.017 886.879 123.93C833.568 121.939 780.846 121.214 728.054 124.378C673.363 127.656 618.423 126.615 564.832 122.466C535.303 120.175 508.133 116.28 478.804 114C452.043 111.92 423.564 111.935 396.094 112.892C365.885 113.941 336.547 116.166 307.658 118.582C276.53 121.183 244.213 125.108 211.557 126.103C141.378 128.239 68.83 120.898 0.0796868 126.358" stroke="url(#paint60_linear)" stroke-miterlimit="10"/>
<path d="M1439 134.068C1364.49 132.796 1303.6 120.3 1226.8 122.135C1169.2 123.515 1114.24 129.24 1056.28 129.924C999.708 130.594 941.94 125.931 886.21 123.897C832.888 121.955 780.356 121.433 727.874 124.915C672.554 128.573 617.364 127.122 563.393 122.655C533.974 120.221 506.604 116.207 477.125 113.952C450.474 111.915 422.165 112.058 394.895 113.14C364.756 114.336 335.567 116.729 306.828 119.277C275.911 122.018 243.554 126.116 210.898 127.127C140.948 129.291 68.5703 121.056 0.049765 126.712" stroke="url(#paint61_linear)" stroke-miterlimit="10"/>
<path d="M1439 134.575C1364.18 133.302 1303.19 120.72 1226.06 122.512C1168.39 123.854 1113.15 129.421 1055.13 129.993C998.619 130.553 941.21 125.821 885.54 123.828C832.199 121.922 779.817 121.593 727.654 125.373C671.765 129.423 616.435 127.59 562.084 122.828C532.765 120.255 505.215 116.136 475.616 113.901C449.055 111.898 420.846 112.152 393.835 113.349C363.737 114.683 334.708 117.228 306.099 119.898C275.351 122.772 242.974 127.01 210.278 128.044C140.468 130.253 68.2705 121.145 0.049765 127.025" stroke="url(#paint62_linear)" stroke-miterlimit="10"/>
<path d="M1439 135.008C1363.89 133.735 1302.84 121.074 1225.41 122.838C1167.73 124.151 1112.24 129.571 1054.17 130.054C997.719 130.515 940.69 125.699 885.021 123.734C831.649 121.85 779.367 121.698 727.504 125.77C671.035 130.207 615.675 128.028 560.925 122.97C531.736 120.272 504.026 116.06 474.317 113.84C447.836 111.86 419.767 112.211 392.946 113.509C362.888 114.968 333.989 117.65 305.499 120.433C274.891 123.423 242.545 127.771 209.758 128.833C140.099 131.111 67.9907 121.145 0.0397625 127.285" stroke="url(#paint63_linear)" stroke-miterlimit="10"/>
<path d="M1439 135.369C1364.26 134.096 1303.41 121.435 1226.43 123.077C1165.61 124.373 1106.81 130.225 1045.43 130.105C992.963 130.003 940.311 125.612 888.478 123.724C833.408 121.718 780.696 121.774 727.364 126.068C668.227 130.818 612.817 128.321 555.818 122.672C530.267 120.142 505.924 116.691 480.183 114.321C452.943 111.814 423.034 112.058 395.005 113.45C363.198 115.028 332.75 118.032 302.751 121.087C272.513 124.177 240.366 128.527 207.76 129.545C138.81 131.686 67.1013 121.117 0.049765 127.491" stroke="url(#paint64_linear)" stroke-miterlimit="10"/>
<path d="M1439 135.654C1364.05 134.399 1303.2 121.654 1226.01 123.299C1165.17 124.597 1106.1 130.311 1044.75 130.12C992.313 129.955 939.931 125.442 888.128 123.551C833.018 121.54 780.316 121.738 727.245 126.313C667.508 131.464 612.388 128.675 554.919 122.749C529.487 120.127 505.075 116.645 479.264 114.273C452.083 111.763 422.305 112.058 394.435 113.529C362.648 115.207 332.32 118.34 302.411 121.476C272.213 124.643 240.076 129.041 207.39 130.11C138.57 132.345 66.7816 120.985 0.0397625 127.667" stroke="url(#paint65_linear)" stroke-miterlimit="10"/>
<path d="M1439 135.858C1363.9 134.624 1303.1 121.802 1225.69 123.472C1164.84 124.786 1105.64 130.378 1044.21 130.126C991.794 129.912 939.661 125.254 887.879 123.348C832.738 121.311 779.957 121.634 727.225 126.484C666.908 132.028 612.228 129.004 554.27 122.828C528.898 120.128 504.426 116.61 478.594 114.209C451.434 111.687 421.915 112.005 394.065 113.545C329.722 117.109 272.073 128.265 207.11 130.516C138.41 132.895 66.4318 120.769 0.0397625 127.787" stroke="url(#paint66_linear)" stroke-miterlimit="10"/>
<path d="M1439 135.987C1363.78 134.778 1303 121.88 1225.5 123.591C1164.64 124.938 1105.24 130.42 1043.84 130.128C991.414 129.873 939.511 125.052 887.749 123.112C832.588 121.046 779.627 121.463 727.195 126.574C666.349 132.508 612.278 129.308 553.77 122.883C528.608 120.127 504.076 116.474 478.184 114.168C450.684 111.722 422.055 111.92 393.905 113.529C329.452 117.215 272.123 128.382 206.93 130.795C138.32 133.34 66.0321 120.473 0.0796868 127.862" stroke="url(#paint67_linear)" stroke-miterlimit="10"/>
<path d="M1439 136.036C1363.7 134.863 1303.03 121.889 1225.45 123.663C1164.59 125.055 1105.11 130.446 1043.59 130.131C991.154 129.861 939.451 124.836 887.699 122.851C832.539 120.735 779.297 121.222 727.175 126.59C665.859 132.91 612.548 129.596 553.48 122.927C499.519 116.838 455.061 109.907 393.955 113.476C329.332 117.251 272.273 128.323 206.85 130.93C138.32 133.661 65.6524 120.099 -0.000161839 127.875" stroke="url(#paint68_linear)" stroke-miterlimit="10"/>
<defs>
<linearGradient id="paint0_linear" x1="-1.03463e+06" y1="-502.12" x2="-1.03463e+06" y2="-489.53" gradientUnits="userSpaceOnUse">
<stop stop-color="#01FCD3"/>
<stop offset="0.0001"/>
<stop offset="1" stop-color="#01FCD3"/>
</linearGradient>
<linearGradient id="paint1_linear" x1="-1.0346e+06" y1="-797.13" x2="-1.0346e+06" y2="-777.023" gradientUnits="userSpaceOnUse">
<stop stop-color="#01FCD3"/>
<stop offset="0.0001"/>
<stop offset="1" stop-color="#01FCD3"/>
</linearGradient>
<linearGradient id="paint2_linear" x1="-1.03463e+06" y1="-1472.72" x2="-1.03463e+06" y2="-1435.58" gradientUnits="userSpaceOnUse">
<stop stop-color="#01FCD3"/>
<stop offset="0.0001"/>
<stop offset="1" stop-color="#01FCD3"/>
</linearGradient>
<linearGradient id="paint3_linear" x1="-1.03463e+06" y1="-2471.28" x2="-1.03463e+06" y2="-2409.04" gradientUnits="userSpaceOnUse">
<stop stop-color="#01FCD3"/>
<stop offset="0.0001"/>
<stop offset="1" stop-color="#01FCD3"/>
</linearGradient>
<linearGradient id="paint4_linear" x1="-1.03463e+06" y1="-4120.23" x2="-1.03463e+06" y2="-4016.59" gradientUnits="userSpaceOnUse">
<stop stop-color="#01FCD3"/>
<stop offset="0.0001"/>
<stop offset="1" stop-color="#01FCD3"/>
</linearGradient>
<linearGradient id="paint5_linear" x1="-1.03463e+06" y1="-5931.22" x2="-1.03463e+06" y2="-5782.14" gradientUnits="userSpaceOnUse">
<stop stop-color="#01FCD3"/>
<stop offset="0.0001"/>
<stop offset="1" stop-color="#01FCD3"/>
</linearGradient>
<linearGradient id="paint6_linear" x1="-1.03463e+06" y1="-8132.58" x2="-1.03463e+06" y2="-7928.25" gradientUnits="userSpaceOnUse">
<stop stop-color="#01FCD3"/>
<stop offset="0.0001"/>
<stop offset="1" stop-color="#01FCD3"/>
</linearGradient>
<linearGradient id="paint7_linear" x1="-1.03461e+06" y1="-10446.1" x2="-1.03461e+06" y2="-10183.7" gradientUnits="userSpaceOnUse">
<stop stop-color="#01FCD3"/>
<stop offset="0.0001"/>
<stop offset="1" stop-color="#01FCD3"/>
</linearGradient>
<linearGradient id="paint8_linear" x1="-1.03463e+06" y1="-12766.1" x2="-1.03463e+06" y2="-12445.6" gradientUnits="userSpaceOnUse">
<stop stop-color="#01FCD3"/>
<stop offset="0.0001"/>
<stop offset="1" stop-color="#01FCD3"/>
</linearGradient>
<linearGradient id="paint9_linear" x1="-1.0346e+06" y1="-14971.9" x2="-1.0346e+06" y2="-14596" gradientUnits="userSpaceOnUse">
<stop stop-color="#01FCD3"/>
<stop offset="0.0001"/>
<stop offset="1" stop-color="#01FCD3"/>
</linearGradient>
<linearGradient id="paint10_linear" x1="-1.03463e+06" y1="-17160.6" x2="-1.03463e+06" y2="-16729.8" gradientUnits="userSpaceOnUse">
<stop stop-color="#01FCD3"/>
<stop offset="0.0001"/>
<stop offset="1" stop-color="#01FCD3"/>
</linearGradient>
<linearGradient id="paint11_linear" x1="-1.03463e+06" y1="-18843.6" x2="-1.03463e+06" y2="-18370.6" gradientUnits="userSpaceOnUse">
<stop stop-color="#01FCD3"/>
<stop offset="0.0001"/>
<stop offset="1" stop-color="#01FCD3"/>
</linearGradient>
<linearGradient id="paint12_linear" x1="-1.03463e+06" y1="-20093.2" x2="-1.03463e+06" y2="-19588.8" gradientUnits="userSpaceOnUse">
<stop stop-color="#01FCD3"/>
<stop offset="0.0001"/>
<stop offset="1" stop-color="#01FCD3"/>
</linearGradient>
<linearGradient id="paint13_linear" x1="-1.03466e+06" y1="-20765.3" x2="-1.03466e+06" y2="-20244" gradientUnits="userSpaceOnUse">
<stop stop-color="#01FCD3"/>
<stop offset="0.0001"/>
<stop offset="1" stop-color="#01FCD3"/>
</linearGradient>
<linearGradient id="paint14_linear" x1="-1.03463e+06" y1="-21070.4" x2="-1.03463e+06" y2="-20541.3" gradientUnits="userSpaceOnUse">
<stop stop-color="#01FCD3"/>
<stop offset="0.0001"/>
<stop offset="1" stop-color="#01FCD3"/>
</linearGradient>
<linearGradient id="paint15_linear" x1="-1.0346e+06" y1="-21379.5" x2="-1.0346e+06" y2="-20842.6" gradientUnits="userSpaceOnUse">
<stop stop-color="#01FCD3"/>
<stop offset="0.0001"/>
<stop offset="1" stop-color="#01FCD3"/>
</linearGradient>
<linearGradient id="paint16_linear" x1="-1.03461e+06" y1="-21558.5" x2="-1.03461e+06" y2="-21017" gradientUnits="userSpaceOnUse">
<stop stop-color="#01FCD3"/>
<stop offset="0.0001"/>
<stop offset="1" stop-color="#01FCD3"/>
</linearGradient>
<linearGradient id="paint17_linear" x1="-1.03465e+06" y1="-21616.8" x2="-1.03465e+06" y2="-21073.8" gradientUnits="userSpaceOnUse">
<stop stop-color="#01FCD3"/>
<stop offset="0.0001"/>
<stop offset="1" stop-color="#01FCD3"/>
</linearGradient>
<linearGradient id="paint18_linear" x1="-1.03463e+06" y1="-21569.3" x2="-1.03463e+06" y2="-21027.5" gradientUnits="userSpaceOnUse">
<stop stop-color="#01FCD3"/>
<stop offset="0.0001"/>
<stop offset="1" stop-color="#01FCD3"/>
</linearGradient>
<linearGradient id="paint19_linear" x1="-1.03463e+06" y1="-21426" x2="-1.03463e+06" y2="-20887.7" gradientUnits="userSpaceOnUse">
<stop stop-color="#01FCD3"/>
<stop offset="0.0001"/>
<stop offset="1" stop-color="#01FCD3"/>
</linearGradient>
<linearGradient id="paint20_linear" x1="-1.03463e+06" y1="-21085" x2="-1.03463e+06" y2="-20555.2" gradientUnits="userSpaceOnUse">
<stop stop-color="#01FCD3"/>
<stop offset="0.0001"/>
<stop offset="1" stop-color="#01FCD3"/>
</linearGradient>
<linearGradient id="paint21_linear" x1="-1.03464e+06" y1="-20859.5" x2="-1.03464e+06" y2="-20335.3" gradientUnits="userSpaceOnUse">
<stop stop-color="#01FCD3"/>
<stop offset="0.0001"/>
<stop offset="1" stop-color="#01FCD3"/>
</linearGradient>
<linearGradient id="paint22_linear" x1="-1.0346e+06" y1="-20585" x2="-1.0346e+06" y2="-20067.6" gradientUnits="userSpaceOnUse">
<stop stop-color="#01FCD3"/>
<stop offset="0.0001"/>
<stop offset="1" stop-color="#01FCD3"/>
</linearGradient>
<linearGradient id="paint23_linear" x1="-1.03463e+06" y1="-20292.8" x2="-1.03463e+06" y2="-19782.6" gradientUnits="userSpaceOnUse">
<stop stop-color="#01FCD3"/>
<stop offset="0.0001"/>
<stop offset="1" stop-color="#01FCD3"/>
</linearGradient>
<linearGradient id="paint24_linear" x1="-1.03466e+06" y1="-19983" x2="-1.03466e+06" y2="-19480.6" gradientUnits="userSpaceOnUse">
<stop stop-color="#01FCD3"/>
<stop offset="0.0001"/>
<stop offset="1" stop-color="#01FCD3"/>
</linearGradient>
<linearGradient id="paint25_linear" x1="-1.03461e+06" y1="-19669" x2="-1.03461e+06" y2="-19174.4" gradientUnits="userSpaceOnUse">
<stop stop-color="#01FCD3"/>
<stop offset="0.0001"/>
<stop offset="1" stop-color="#01FCD3"/>
</linearGradient>
<linearGradient id="paint26_linear" x1="-1.03463e+06" y1="-19257.2" x2="-1.03463e+06" y2="-18772.9" gradientUnits="userSpaceOnUse">
<stop stop-color="#01FCD3"/>
<stop offset="0.0001"/>
<stop offset="1" stop-color="#01FCD3"/>
</linearGradient>
<linearGradient id="paint27_linear" x1="-1.0346e+06" y1="-18964.8" x2="-1.0346e+06" y2="-18487.7" gradientUnits="userSpaceOnUse">
<stop stop-color="#01FCD3"/>
<stop offset="0.0001"/>
<stop offset="1" stop-color="#01FCD3"/>
</linearGradient>
<linearGradient id="paint28_linear" x1="-1.03461e+06" y1="-18705" x2="-1.03461e+06" y2="-18234.4" gradientUnits="userSpaceOnUse">
<stop stop-color="#01FCD3"/>
<stop offset="0.0001"/>
<stop offset="1" stop-color="#01FCD3"/>
</linearGradient>
<linearGradient id="paint29_linear" x1="-1.0346e+06" y1="-18502.4" x2="-1.0346e+06" y2="-18036.9" gradientUnits="userSpaceOnUse">
<stop stop-color="#01FCD3"/>
<stop offset="0.0001"/>
<stop offset="1" stop-color="#01FCD3"/>
</linearGradient>
<linearGradient id="paint30_linear" x1="-1.03466e+06" y1="-18328.9" x2="-1.03466e+06" y2="-17867.6" gradientUnits="userSpaceOnUse">
<stop stop-color="#01FCD3"/>
<stop offset="0.0001"/>
<stop offset="1" stop-color="#01FCD3"/>
</linearGradient>
<linearGradient id="paint31_linear" x1="-1.03463e+06" y1="-18246.8" x2="-1.03463e+06" y2="-17787.6" gradientUnits="userSpaceOnUse">
<stop stop-color="#01FCD3"/>
<stop offset="0.0001"/>
<stop offset="1" stop-color="#01FCD3"/>
</linearGradient>
<linearGradient id="paint32_linear" x1="-1.03463e+06" y1="-18211.7" x2="-1.03463e+06" y2="-17753.3" gradientUnits="userSpaceOnUse">
<stop stop-color="#01FCD3"/>
<stop offset="0.0001"/>
<stop offset="1" stop-color="#01FCD3"/>
</linearGradient>
<linearGradient id="paint33_linear" x1="-1.03465e+06" y1="-18100.9" x2="-1.03465e+06" y2="-17645.2" gradientUnits="userSpaceOnUse">
<stop stop-color="#01FCD3"/>
<stop offset="0.0001"/>
<stop offset="1" stop-color="#01FCD3"/>
</linearGradient>
<linearGradient id="paint34_linear" x1="-1.03463e+06" y1="-17930.3" x2="-1.03463e+06" y2="-17478.9" gradientUnits="userSpaceOnUse">
<stop stop-color="#01FCD3"/>
<stop offset="0.0001"/>
<stop offset="1" stop-color="#01FCD3"/>
</linearGradient>
<linearGradient id="paint35_linear" x1="-1.03465e+06" y1="-17677.9" x2="-1.03465e+06" y2="-17232.7" gradientUnits="userSpaceOnUse">
<stop stop-color="#01FCD3"/>
<stop offset="0.0001"/>
<stop offset="1" stop-color="#01FCD3"/>
</linearGradient>
<linearGradient id="paint36_linear" x1="-1.03463e+06" y1="-17373.8" x2="-1.03463e+06" y2="-16936.1" gradientUnits="userSpaceOnUse">
<stop stop-color="#01FCD3"/>
<stop offset="0.0001"/>
<stop offset="1" stop-color="#01FCD3"/>
</linearGradient>
<linearGradient id="paint37_linear" x1="-1.03465e+06" y1="-17008.7" x2="-1.03465e+06" y2="-16580.1" gradientUnits="userSpaceOnUse">
<stop stop-color="#01FCD3"/>
<stop offset="0.0001"/>
<stop offset="1" stop-color="#01FCD3"/>
</linearGradient>
<linearGradient id="paint38_linear" x1="-1.03462e+06" y1="-16600.6" x2="-1.03462e+06" y2="-16182.2" gradientUnits="userSpaceOnUse">
<stop stop-color="#01FCD3"/>
<stop offset="0.0001"/>
<stop offset="1" stop-color="#01FCD3"/>
</linearGradient>
<linearGradient id="paint39_linear" x1="-1.03463e+06" y1="-16137.4" x2="-1.03463e+06" y2="-15730.6" gradientUnits="userSpaceOnUse">
<stop stop-color="#01FCD3"/>
<stop offset="0.0001"/>
<stop offset="1" stop-color="#01FCD3"/>
</linearGradient>
<linearGradient id="paint40_linear" x1="-1.03461e+06" y1="-15622.4" x2="-1.03461e+06" y2="-15228.5" gradientUnits="userSpaceOnUse">
<stop stop-color="#01FCD3"/>
<stop offset="0.0001"/>
<stop offset="1" stop-color="#01FCD3"/>
</linearGradient>
<linearGradient id="paint41_linear" x1="-1.03463e+06" y1="-15090.8" x2="-1.03463e+06" y2="-14710.1" gradientUnits="userSpaceOnUse">
<stop stop-color="#01FCD3"/>
<stop offset="0.0001"/>
<stop offset="1" stop-color="#01FCD3"/>
</linearGradient>
<linearGradient id="paint42_linear" x1="-1.03463e+06" y1="-14515.6" x2="-1.03463e+06" y2="-14149.3" gradientUnits="userSpaceOnUse">
<stop stop-color="#01FCD3"/>
<stop offset="0.0001"/>
<stop offset="1" stop-color="#01FCD3"/>
</linearGradient>
<linearGradient id="paint43_linear" x1="-1.03463e+06" y1="-13935.6" x2="-1.03463e+06" y2="-13583.7" gradientUnits="userSpaceOnUse">
<stop stop-color="#01FCD3"/>
<stop offset="0.0001"/>
<stop offset="1" stop-color="#01FCD3"/>
</linearGradient>
<linearGradient id="paint44_linear" x1="-1.03463e+06" y1="-13324.7" x2="-1.03463e+06" y2="-12988.2" gradientUnits="userSpaceOnUse">
<stop stop-color="#01FCD3"/>
<stop offset="0.0001"/>
<stop offset="1" stop-color="#01FCD3"/>
</linearGradient>
<linearGradient id="paint45_linear" x1="-1.03463e+06" y1="-12716.4" x2="-1.03463e+06" y2="-12395" gradientUnits="userSpaceOnUse">
<stop stop-color="#01FCD3"/>
<stop offset="0.0001"/>
<stop offset="1" stop-color="#01FCD3"/>
</linearGradient>
<linearGradient id="paint46_linear" x1="-1.03458e+06" y1="-12120.6" x2="-1.03458e+06" y2="-11814.2" gradientUnits="userSpaceOnUse">
<stop stop-color="#01FCD3"/>
<stop offset="0.0001"/>
<stop offset="1" stop-color="#01FCD3"/>
</linearGradient>
<linearGradient id="paint47_linear" x1="-1.03466e+06" y1="-11482.1" x2="-1.03466e+06" y2="-11191.6" gradientUnits="userSpaceOnUse">
<stop stop-color="#01FCD3"/>
<stop offset="0.0001"/>
<stop offset="1" stop-color="#01FCD3"/>
</linearGradient>
<linearGradient id="paint48_linear" x1="-1.03463e+06" y1="-11089.1" x2="-1.03463e+06" y2="-10808.5" gradientUnits="userSpaceOnUse">
<stop stop-color="#01FCD3"/>
<stop offset="0.0001"/>
<stop offset="1" stop-color="#01FCD3"/>
</linearGradient>
<linearGradient id="paint49_linear" x1="-1.03463e+06" y1="-10604.1" x2="-1.03463e+06" y2="-10335.6" gradientUnits="userSpaceOnUse">
<stop stop-color="#01FCD3"/>
<stop offset="0.0001"/>
<stop offset="1" stop-color="#01FCD3"/>
</linearGradient>
<linearGradient id="paint50_linear" x1="-1.03465e+06" y1="-10218.7" x2="-1.03465e+06" y2="-9959.81" gradientUnits="userSpaceOnUse">
<stop stop-color="#01FCD3"/>
<stop offset="0.0001"/>
<stop offset="1" stop-color="#01FCD3"/>
</linearGradient>
<linearGradient id="paint51_linear" x1="-1.03463e+06" y1="-9907.12" x2="-1.03463e+06" y2="-9656" gradientUnits="userSpaceOnUse">
<stop stop-color="#01FCD3"/>
<stop offset="0.0001"/>
<stop offset="1" stop-color="#01FCD3"/>
</linearGradient>
<linearGradient id="paint52_linear" x1="-1.03459e+06" y1="-9648.16" x2="-1.03459e+06" y2="-9403.51" gradientUnits="userSpaceOnUse">
<stop stop-color="#01FCD3"/>
<stop offset="0.0001"/>
<stop offset="1" stop-color="#01FCD3"/>
</linearGradient>
<linearGradient id="paint53_linear" x1="-1.03461e+06" y1="-9427.87" x2="-1.03461e+06" y2="-9188.72" gradientUnits="userSpaceOnUse">
<stop stop-color="#01FCD3"/>
<stop offset="0.0001"/>
<stop offset="1" stop-color="#01FCD3"/>
</linearGradient>
<linearGradient id="paint54_linear" x1="-1.0346e+06" y1="-9248.76" x2="-1.0346e+06" y2="-9014.09" gradientUnits="userSpaceOnUse">
<stop stop-color="#01FCD3"/>
<stop offset="0.0001"/>
<stop offset="1" stop-color="#01FCD3"/>
</linearGradient>
<linearGradient id="paint55_linear" x1="-1.03461e+06" y1="-9256.49" x2="-1.03461e+06" y2="-9021.62" gradientUnits="userSpaceOnUse">
<stop stop-color="#01FCD3"/>
<stop offset="0.0001"/>
<stop offset="1" stop-color="#01FCD3"/>
</linearGradient>
<linearGradient id="paint56_linear" x1="-1.03466e+06" y1="-9505.46" x2="-1.03466e+06" y2="-9264.33" gradientUnits="userSpaceOnUse">
<stop stop-color="#01FCD3"/>
<stop offset="0.0001"/>
<stop offset="1" stop-color="#01FCD3"/>
</linearGradient>
<linearGradient id="paint57_linear" x1="-1.03463e+06" y1="-9763.03" x2="-1.03463e+06" y2="-9515.44" gradientUnits="userSpaceOnUse">
<stop stop-color="#01FCD3"/>
<stop offset="0.0001"/>
<stop offset="1" stop-color="#01FCD3"/>
</linearGradient>
<linearGradient id="paint58_linear" x1="-1.03463e+06" y1="-10024.8" x2="-1.03463e+06" y2="-9770.66" gradientUnits="userSpaceOnUse">
<stop stop-color="#01FCD3"/>
<stop offset="0.0001"/>
<stop offset="1" stop-color="#01FCD3"/>
</linearGradient>
<linearGradient id="paint59_linear" x1="-1.03459e+06" y1="-10293.8" x2="-1.03459e+06" y2="-10032.9" gradientUnits="userSpaceOnUse">
<stop stop-color="#01FCD3"/>
<stop offset="0.0001"/>
<stop offset="1" stop-color="#01FCD3"/>
</linearGradient>
<linearGradient id="paint60_linear" x1="-1.0346e+06" y1="-10543" x2="-1.0346e+06" y2="-10275.8" gradientUnits="userSpaceOnUse">
<stop stop-color="#01FCD3"/>
<stop offset="0.0001"/>
<stop offset="1" stop-color="#01FCD3"/>
</linearGradient>
<linearGradient id="paint61_linear" x1="-1.03462e+06" y1="-10786.5" x2="-1.03462e+06" y2="-10513.2" gradientUnits="userSpaceOnUse">
<stop stop-color="#01FCD3"/>
<stop offset="0.0001"/>
<stop offset="1" stop-color="#01FCD3"/>
</linearGradient>
<linearGradient id="paint62_linear" x1="-1.03462e+06" y1="-11010.9" x2="-1.03462e+06" y2="-10732" gradientUnits="userSpaceOnUse">
<stop stop-color="#01FCD3"/>
<stop offset="0.0001"/>
<stop offset="1" stop-color="#01FCD3"/>
</linearGradient>
<linearGradient id="paint63_linear" x1="-1.03463e+06" y1="-11216.8" x2="-1.03463e+06" y2="-10932.7" gradientUnits="userSpaceOnUse">
<stop stop-color="#01FCD3"/>
<stop offset="0.0001"/>
<stop offset="1" stop-color="#01FCD3"/>
</linearGradient>
<linearGradient id="paint64_linear" x1="-1.03462e+06" y1="-11414" x2="-1.03462e+06" y2="-11125" gradientUnits="userSpaceOnUse">
<stop stop-color="#01FCD3"/>
<stop offset="0.0001"/>
<stop offset="1" stop-color="#01FCD3"/>
</linearGradient>
<linearGradient id="paint65_linear" x1="-1.03463e+06" y1="-11562.4" x2="-1.03463e+06" y2="-11269.7" gradientUnits="userSpaceOnUse">
<stop stop-color="#01FCD3"/>
<stop offset="0.0001"/>
<stop offset="1" stop-color="#01FCD3"/>
</linearGradient>
<linearGradient id="paint66_linear" x1="-1.03463e+06" y1="-11691.2" x2="-1.03463e+06" y2="-11395.2" gradientUnits="userSpaceOnUse">
<stop stop-color="#01FCD3"/>
<stop offset="0.0001"/>
<stop offset="1" stop-color="#01FCD3"/>
</linearGradient>
<linearGradient id="paint67_linear" x1="-1.0346e+06" y1="-11769.9" x2="-1.0346e+06" y2="-11472" gradientUnits="userSpaceOnUse">
<stop stop-color="#01FCD3"/>
<stop offset="0.0001"/>
<stop offset="1" stop-color="#01FCD3"/>
</linearGradient>
<linearGradient id="paint68_linear" x1="-1.03466e+06" y1="-11705" x2="-1.03466e+06" y2="-11408.6" gradientUnits="userSpaceOnUse">
<stop stop-color="#01FCD3"/>
<stop offset="0.0001"/>
<stop offset="1" stop-color="#01FCD3"/>
</linearGradient>
</defs>
</svg>
